<svg width="360" height="800" viewBox="0 0 360 800" fill="none" xmlns="http://www.w3.org/2000/svg">
<g clip-path="url(#clip0_2_5)">
<rect width="360" height="800" fill="white"/>
<rect width="360" height="24" fill="#4F4F4F"/>
<path fill-rule="evenodd" clip-rule="evenodd" d="M316 7H306V17H316V7ZM324 12C324 9.23858 326.239 7 329 7C331.761 7 334 9.23858 334 12C334 14.7614 331.761 17 329 17C326.239 17 324 14.7614 324 12ZM346 17L352 7H340L346 17Z" fill="white" fill-opacity="0.38"/>
<g filter="url(#filter0_ddd_2_5)">
<rect width="361" height="56" transform="translate(0 24)" fill="#6200EE"/>
<path d="M82.8438 54.3711H85.2852C85.207 55.3021 84.9466 56.1322 84.5039 56.8613C84.0612 57.584 83.4395 58.1536 82.6387 58.5703C81.8379 58.987 80.8646 59.1953 79.7188 59.1953C78.8398 59.1953 78.0488 59.0391 77.3457 58.7266C76.6426 58.4076 76.0404 57.9583 75.5391 57.3789C75.0378 56.793 74.6536 56.0866 74.3867 55.2598C74.1263 54.4329 73.9961 53.5085 73.9961 52.4863V51.3047C73.9961 50.2826 74.1296 49.3581 74.3965 48.5312C74.6699 47.7044 75.0605 46.998 75.5684 46.4121C76.0762 45.8197 76.6849 45.3672 77.3945 45.0547C78.1107 44.7422 78.9147 44.5859 79.8066 44.5859C80.9395 44.5859 81.8965 44.7943 82.6777 45.2109C83.459 45.6276 84.0645 46.2038 84.4941 46.9395C84.9303 47.6751 85.1973 48.5182 85.2949 49.4688H82.8535C82.7884 48.8568 82.6452 48.3327 82.4238 47.8965C82.209 47.4603 81.89 47.1283 81.4668 46.9004C81.0436 46.666 80.4902 46.5488 79.8066 46.5488C79.2467 46.5488 78.7585 46.653 78.3418 46.8613C77.9251 47.0697 77.5768 47.3757 77.2969 47.7793C77.0169 48.1829 76.8053 48.681 76.6621 49.2734C76.5254 49.8594 76.457 50.5299 76.457 51.2852V52.4863C76.457 53.2025 76.5189 53.8535 76.6426 54.4395C76.7728 55.0189 76.9681 55.5169 77.2285 55.9336C77.4954 56.3503 77.834 56.6725 78.2441 56.9004C78.6543 57.1283 79.1458 57.2422 79.7188 57.2422C80.4154 57.2422 80.9785 57.1315 81.4082 56.9102C81.8444 56.6888 82.1732 56.3665 82.3945 55.9434C82.6224 55.5137 82.7721 54.9896 82.8438 54.3711ZM89.7906 50.4453V59H87.4371V48.4336H89.6832L89.7906 50.4453ZM93.023 48.3652L93.0035 50.5527C92.8603 50.5267 92.704 50.5072 92.5348 50.4941C92.372 50.4811 92.2092 50.4746 92.0465 50.4746C91.6428 50.4746 91.288 50.5332 90.982 50.6504C90.676 50.7611 90.4189 50.9238 90.2105 51.1387C90.0087 51.347 89.8525 51.6009 89.7418 51.9004C89.6311 52.1999 89.566 52.5352 89.5465 52.9062L89.0094 52.9453C89.0094 52.2812 89.0745 51.666 89.2047 51.0996C89.3349 50.5332 89.5302 50.0352 89.7906 49.6055C90.0576 49.1758 90.3896 48.8405 90.7867 48.5996C91.1904 48.3587 91.6559 48.2383 92.1832 48.2383C92.3264 48.2383 92.4794 48.2513 92.6422 48.2773C92.8115 48.3034 92.9384 48.3327 93.023 48.3652ZM99.1105 59.1953C98.3293 59.1953 97.6229 59.0684 96.9914 58.8145C96.3664 58.554 95.8326 58.1927 95.3898 57.7305C94.9536 57.2682 94.6184 56.7246 94.384 56.0996C94.1496 55.4746 94.0324 54.8008 94.0324 54.0781V53.6875C94.0324 52.8607 94.1529 52.112 94.3937 51.4414C94.6346 50.7708 94.9699 50.1979 95.3996 49.7227C95.8293 49.2409 96.3371 48.873 96.923 48.6191C97.509 48.3652 98.1437 48.2383 98.8273 48.2383C99.5826 48.2383 100.243 48.3652 100.81 48.6191C101.376 48.873 101.845 49.2311 102.216 49.6934C102.594 50.1491 102.874 50.6927 103.056 51.3242C103.245 51.9557 103.339 52.6523 103.339 53.4141V54.4199H95.175V52.7305H101.015V52.5449C101.002 52.1217 100.917 51.7246 100.761 51.3535C100.611 50.9824 100.38 50.6829 100.068 50.4551C99.7551 50.2272 99.3384 50.1133 98.8176 50.1133C98.427 50.1133 98.0786 50.1979 97.7727 50.3672C97.4732 50.5299 97.2225 50.7676 97.0207 51.0801C96.8189 51.3926 96.6626 51.7702 96.552 52.2129C96.4478 52.6491 96.3957 53.1406 96.3957 53.6875V54.0781C96.3957 54.5404 96.4576 54.9701 96.5812 55.3672C96.7115 55.7578 96.9003 56.0996 97.1477 56.3926C97.3951 56.6855 97.6945 56.9167 98.0461 57.0859C98.3977 57.2487 98.798 57.3301 99.2473 57.3301C99.8137 57.3301 100.318 57.2161 100.761 56.9883C101.204 56.7604 101.588 56.4382 101.913 56.0215L103.154 57.2227C102.926 57.5547 102.629 57.8737 102.265 58.1797C101.9 58.4792 101.454 58.7233 100.927 58.9121C100.406 59.1009 99.8007 59.1953 99.1105 59.1953ZM111.282 56.8809V51.8418C111.282 51.4642 111.214 51.1387 111.077 50.8652C110.94 50.5918 110.732 50.3802 110.452 50.2305C110.179 50.0807 109.833 50.0059 109.417 50.0059C109.033 50.0059 108.701 50.071 108.421 50.2012C108.141 50.3314 107.923 50.5072 107.766 50.7285C107.61 50.9499 107.532 51.2005 107.532 51.4805H105.188C105.188 51.0638 105.289 50.6602 105.491 50.2695C105.693 49.8789 105.986 49.5306 106.37 49.2246C106.754 48.9186 107.213 48.6777 107.747 48.502C108.281 48.3262 108.88 48.2383 109.544 48.2383C110.338 48.2383 111.041 48.3717 111.653 48.6387C112.272 48.9056 112.757 49.3092 113.108 49.8496C113.466 50.3835 113.645 51.054 113.645 51.8613V56.5586C113.645 57.0404 113.678 57.4733 113.743 57.8574C113.815 58.235 113.915 58.5638 114.046 58.8438V59H111.634C111.523 58.7461 111.435 58.4238 111.37 58.0332C111.311 57.6361 111.282 57.252 111.282 56.8809ZM111.624 52.5742L111.643 54.0293H109.954C109.518 54.0293 109.134 54.0716 108.802 54.1562C108.47 54.2344 108.193 54.3516 107.971 54.5078C107.75 54.6641 107.584 54.8529 107.473 55.0742C107.363 55.2956 107.307 55.5462 107.307 55.8262C107.307 56.1061 107.373 56.3633 107.503 56.5977C107.633 56.8255 107.822 57.0046 108.069 57.1348C108.323 57.265 108.629 57.3301 108.987 57.3301C109.469 57.3301 109.889 57.2324 110.247 57.0371C110.611 56.8353 110.898 56.5911 111.106 56.3047C111.315 56.0117 111.425 55.735 111.438 55.4746L112.2 56.5195C112.122 56.7865 111.988 57.0729 111.8 57.3789C111.611 57.6849 111.363 57.9779 111.057 58.2578C110.758 58.5312 110.397 58.7559 109.973 58.9316C109.557 59.1074 109.075 59.1953 108.528 59.1953C107.838 59.1953 107.223 59.0586 106.682 58.7852C106.142 58.5052 105.719 58.1309 105.413 57.6621C105.107 57.1868 104.954 56.6497 104.954 56.0508C104.954 55.4909 105.058 54.9961 105.266 54.5664C105.481 54.1302 105.794 53.7656 106.204 53.4727C106.621 53.1797 107.128 52.9583 107.727 52.8086C108.326 52.6523 109.01 52.5742 109.778 52.5742H111.624ZM118.62 50.4453V59H116.266V48.4336H118.512L118.62 50.4453ZM121.852 48.3652L121.832 50.5527C121.689 50.5267 121.533 50.5072 121.364 50.4941C121.201 50.4811 121.038 50.4746 120.875 50.4746C120.472 50.4746 120.117 50.5332 119.811 50.6504C119.505 50.7611 119.248 50.9238 119.039 51.1387C118.838 51.347 118.681 51.6009 118.571 51.9004C118.46 52.1999 118.395 52.5352 118.375 52.9062L117.838 52.9453C117.838 52.2812 117.903 51.666 118.034 51.0996C118.164 50.5332 118.359 50.0352 118.62 49.6055C118.886 49.1758 119.218 48.8405 119.616 48.5996C120.019 48.3587 120.485 48.2383 121.012 48.2383C121.155 48.2383 121.308 48.2513 121.471 48.2773C121.64 48.3034 121.767 48.3327 121.852 48.3652ZM130.941 50.6895V59H128.588V48.4336H130.804L130.941 50.6895ZM130.521 53.3262L129.759 53.3164C129.766 52.5677 129.87 51.8809 130.072 51.2559C130.28 50.6309 130.567 50.0938 130.931 49.6445C131.302 49.1953 131.745 48.8503 132.259 48.6094C132.774 48.362 133.347 48.2383 133.978 48.2383C134.486 48.2383 134.945 48.3099 135.355 48.4531C135.772 48.5898 136.127 48.8145 136.42 49.127C136.719 49.4395 136.947 49.8464 137.103 50.3477C137.259 50.8424 137.338 51.4512 137.338 52.1738V59H134.974V52.1641C134.974 51.6562 134.899 51.2559 134.75 50.9629C134.606 50.6634 134.395 50.4518 134.115 50.3281C133.841 50.1979 133.5 50.1328 133.089 50.1328C132.686 50.1328 132.324 50.2174 132.005 50.3867C131.686 50.556 131.416 50.7871 131.195 51.0801C130.98 51.373 130.814 51.7116 130.697 52.0957C130.58 52.4798 130.521 52.89 130.521 53.3262ZM146.247 56.5098V48.4336H148.611V59H146.384L146.247 56.5098ZM146.579 54.3125L147.37 54.293C147.37 55.0026 147.292 55.6569 147.136 56.2559C146.98 56.8483 146.739 57.3659 146.413 57.8086C146.088 58.2448 145.671 58.5866 145.163 58.834C144.655 59.0749 144.047 59.1953 143.337 59.1953C142.823 59.1953 142.351 59.1204 141.921 58.9707C141.491 58.821 141.12 58.5898 140.808 58.2773C140.502 57.9648 140.264 57.5579 140.095 57.0566C139.926 56.5553 139.841 55.9564 139.841 55.2598V48.4336H142.195V55.2793C142.195 55.6634 142.24 55.9857 142.331 56.2461C142.422 56.5 142.546 56.7051 142.702 56.8613C142.859 57.0176 143.041 57.1283 143.249 57.1934C143.458 57.2585 143.679 57.291 143.913 57.291C144.584 57.291 145.111 57.1608 145.495 56.9004C145.886 56.6335 146.163 56.2754 146.325 55.8262C146.495 55.377 146.579 54.8724 146.579 54.3125ZM155.831 59.1953C155.05 59.1953 154.343 59.0684 153.712 58.8145C153.087 58.554 152.553 58.1927 152.11 57.7305C151.674 57.2682 151.339 56.7246 151.104 56.0996C150.87 55.4746 150.753 54.8008 150.753 54.0781V53.6875C150.753 52.8607 150.873 52.112 151.114 51.4414C151.355 50.7708 151.69 50.1979 152.12 49.7227C152.55 49.2409 153.057 48.873 153.643 48.6191C154.229 48.3652 154.864 48.2383 155.548 48.2383C156.303 48.2383 156.964 48.3652 157.53 48.6191C158.096 48.873 158.565 49.2311 158.936 49.6934C159.314 50.1491 159.594 50.6927 159.776 51.3242C159.965 51.9557 160.059 52.6523 160.059 53.4141V54.4199H151.895V52.7305H157.735V52.5449C157.722 52.1217 157.637 51.7246 157.481 51.3535C157.332 50.9824 157.1 50.6829 156.788 50.4551C156.475 50.2272 156.059 50.1133 155.538 50.1133C155.147 50.1133 154.799 50.1979 154.493 50.3672C154.193 50.5299 153.943 50.7676 153.741 51.0801C153.539 51.3926 153.383 51.7702 153.272 52.2129C153.168 52.6491 153.116 53.1406 153.116 53.6875V54.0781C153.116 54.5404 153.178 54.9701 153.302 55.3672C153.432 55.7578 153.621 56.0996 153.868 56.3926C154.115 56.6855 154.415 56.9167 154.766 57.0859C155.118 57.2487 155.518 57.3301 155.968 57.3301C156.534 57.3301 157.039 57.2161 157.481 56.9883C157.924 56.7604 158.308 56.4382 158.634 56.0215L159.874 57.2227C159.646 57.5547 159.35 57.8737 158.985 58.1797C158.621 58.4792 158.175 58.7233 157.647 58.9121C157.126 59.1009 156.521 59.1953 155.831 59.1953ZM165.346 57.1348L167.934 48.4336H170.375L166.704 59H165.18L165.346 57.1348ZM163.364 48.4336L166 57.1738L166.127 59H164.604L160.912 48.4336H163.364ZM177.781 56.8809V51.8418C177.781 51.4642 177.713 51.1387 177.576 50.8652C177.439 50.5918 177.231 50.3802 176.951 50.2305C176.678 50.0807 176.333 50.0059 175.916 50.0059C175.532 50.0059 175.2 50.071 174.92 50.2012C174.64 50.3314 174.422 50.5072 174.266 50.7285C174.109 50.9499 174.031 51.2005 174.031 51.4805H171.688C171.688 51.0638 171.788 50.6602 171.99 50.2695C172.192 49.8789 172.485 49.5306 172.869 49.2246C173.253 48.9186 173.712 48.6777 174.246 48.502C174.78 48.3262 175.379 48.2383 176.043 48.2383C176.837 48.2383 177.54 48.3717 178.152 48.6387C178.771 48.9056 179.256 49.3092 179.607 49.8496C179.965 50.3835 180.145 51.054 180.145 51.8613V56.5586C180.145 57.0404 180.177 57.4733 180.242 57.8574C180.314 58.235 180.415 58.5638 180.545 58.8438V59H178.133C178.022 58.7461 177.934 58.4238 177.869 58.0332C177.811 57.6361 177.781 57.252 177.781 56.8809ZM178.123 52.5742L178.143 54.0293H176.453C176.017 54.0293 175.633 54.0716 175.301 54.1562C174.969 54.2344 174.692 54.3516 174.471 54.5078C174.249 54.6641 174.083 54.8529 173.973 55.0742C173.862 55.2956 173.807 55.5462 173.807 55.8262C173.807 56.1061 173.872 56.3633 174.002 56.5977C174.132 56.8255 174.321 57.0046 174.568 57.1348C174.822 57.265 175.128 57.3301 175.486 57.3301C175.968 57.3301 176.388 57.2324 176.746 57.0371C177.111 56.8353 177.397 56.5911 177.605 56.3047C177.814 56.0117 177.924 55.735 177.938 55.4746L178.699 56.5195C178.621 56.7865 178.488 57.0729 178.299 57.3789C178.11 57.6849 177.863 57.9779 177.557 58.2578C177.257 58.5312 176.896 58.7559 176.473 58.9316C176.056 59.1074 175.574 59.1953 175.027 59.1953C174.337 59.1953 173.722 59.0586 173.182 58.7852C172.641 58.5052 172.218 58.1309 171.912 57.6621C171.606 57.1868 171.453 56.6497 171.453 56.0508C171.453 55.4909 171.557 54.9961 171.766 54.5664C171.98 54.1302 172.293 53.7656 172.703 53.4727C173.12 53.1797 173.628 52.9583 174.227 52.8086C174.826 52.6523 175.509 52.5742 176.277 52.5742H178.123ZM196.519 54.3711H198.96C198.882 55.3021 198.622 56.1322 198.179 56.8613C197.736 57.584 197.114 58.1536 196.314 58.5703C195.513 58.987 194.54 59.1953 193.394 59.1953C192.515 59.1953 191.724 59.0391 191.021 58.7266C190.318 58.4076 189.715 57.9583 189.214 57.3789C188.713 56.793 188.329 56.0866 188.062 55.2598C187.801 54.4329 187.671 53.5085 187.671 52.4863V51.3047C187.671 50.2826 187.805 49.3581 188.071 48.5312C188.345 47.7044 188.736 46.998 189.243 46.4121C189.751 45.8197 190.36 45.3672 191.07 45.0547C191.786 44.7422 192.59 44.5859 193.482 44.5859C194.614 44.5859 195.571 44.7943 196.353 45.2109C197.134 45.6276 197.739 46.2038 198.169 46.9395C198.605 47.6751 198.872 48.5182 198.97 49.4688H196.529C196.463 48.8568 196.32 48.3327 196.099 47.8965C195.884 47.4603 195.565 47.1283 195.142 46.9004C194.719 46.666 194.165 46.5488 193.482 46.5488C192.922 46.5488 192.433 46.653 192.017 46.8613C191.6 47.0697 191.252 47.3757 190.972 47.7793C190.692 48.1829 190.48 48.681 190.337 49.2734C190.2 49.8594 190.132 50.5299 190.132 51.2852V52.4863C190.132 53.2025 190.194 53.8535 190.318 54.4395C190.448 55.0189 190.643 55.5169 190.904 55.9336C191.17 56.3503 191.509 56.6725 191.919 56.9004C192.329 57.1283 192.821 57.2422 193.394 57.2422C194.09 57.2422 194.654 57.1315 195.083 56.9102C195.519 56.6888 195.848 56.3665 196.07 55.9434C196.297 55.5137 196.447 54.9896 196.519 54.3711ZM200.653 53.834V53.6094C200.653 52.8477 200.764 52.1413 200.985 51.4902C201.207 50.8327 201.526 50.263 201.942 49.7812C202.365 49.293 202.88 48.9154 203.485 48.6484C204.097 48.375 204.787 48.2383 205.555 48.2383C206.33 48.2383 207.02 48.375 207.626 48.6484C208.238 48.9154 208.755 49.293 209.179 49.7812C209.602 50.263 209.924 50.8327 210.145 51.4902C210.367 52.1413 210.477 52.8477 210.477 53.6094V53.834C210.477 54.5957 210.367 55.3021 210.145 55.9531C209.924 56.6042 209.602 57.1738 209.179 57.6621C208.755 58.1439 208.241 58.5215 207.636 58.7949C207.03 59.0618 206.343 59.1953 205.575 59.1953C204.8 59.1953 204.107 59.0618 203.495 58.7949C202.889 58.5215 202.375 58.1439 201.952 57.6621C201.529 57.1738 201.207 56.6042 200.985 55.9531C200.764 55.3021 200.653 54.5957 200.653 53.834ZM203.007 53.6094V53.834C203.007 54.3092 203.055 54.7585 203.153 55.1816C203.251 55.6048 203.404 55.9759 203.612 56.2949C203.82 56.6139 204.087 56.8646 204.413 57.0469C204.738 57.2292 205.126 57.3203 205.575 57.3203C206.011 57.3203 206.389 57.2292 206.708 57.0469C207.033 56.8646 207.3 56.6139 207.509 56.2949C207.717 55.9759 207.87 55.6048 207.968 55.1816C208.072 54.7585 208.124 54.3092 208.124 53.834V53.6094C208.124 53.1406 208.072 52.6979 207.968 52.2812C207.87 51.8581 207.714 51.4837 207.499 51.1582C207.29 50.8327 207.024 50.5788 206.698 50.3965C206.379 50.2077 205.998 50.1133 205.555 50.1133C205.113 50.1133 204.729 50.2077 204.403 50.3965C204.084 50.5788 203.82 50.8327 203.612 51.1582C203.404 51.4837 203.251 51.8581 203.153 52.2812C203.055 52.6979 203.007 53.1406 203.007 53.6094ZM214.934 50.6895V59H212.58V48.4336H214.797L214.934 50.6895ZM214.514 53.3262L213.752 53.3164C213.759 52.5677 213.863 51.8809 214.065 51.2559C214.273 50.6309 214.56 50.0938 214.924 49.6445C215.295 49.1953 215.738 48.8503 216.252 48.6094C216.767 48.362 217.34 48.2383 217.971 48.2383C218.479 48.2383 218.938 48.3099 219.348 48.4531C219.765 48.5898 220.12 48.8145 220.413 49.127C220.712 49.4395 220.94 49.8464 221.096 50.3477C221.252 50.8424 221.33 51.4512 221.33 52.1738V59H218.967V52.1641C218.967 51.6562 218.892 51.2559 218.743 50.9629C218.599 50.6634 218.388 50.4518 218.108 50.3281C217.834 50.1979 217.493 50.1328 217.082 50.1328C216.679 50.1328 216.317 50.2174 215.998 50.3867C215.679 50.556 215.409 50.7871 215.188 51.0801C214.973 51.373 214.807 51.7116 214.69 52.0957C214.573 52.4798 214.514 52.89 214.514 53.3262ZM229.811 56.1387C229.811 55.9043 229.752 55.6927 229.635 55.5039C229.518 55.3086 229.293 55.1328 228.961 54.9766C228.635 54.8203 228.154 54.6771 227.516 54.5469C226.956 54.4232 226.441 54.2767 225.973 54.1074C225.51 53.9316 225.113 53.7201 224.781 53.4727C224.449 53.2253 224.192 52.9323 224.01 52.5938C223.827 52.2552 223.736 51.8646 223.736 51.4219C223.736 50.9922 223.831 50.5853 224.02 50.2012C224.208 49.8171 224.479 49.4785 224.83 49.1855C225.182 48.8926 225.608 48.6615 226.109 48.4922C226.617 48.3229 227.184 48.2383 227.809 48.2383C228.694 48.2383 229.452 48.388 230.084 48.6875C230.722 48.9805 231.21 49.3809 231.549 49.8887C231.887 50.39 232.057 50.9564 232.057 51.5879H229.703C229.703 51.3079 229.632 51.0475 229.488 50.8066C229.352 50.5592 229.143 50.3607 228.863 50.2109C228.583 50.0547 228.232 49.9766 227.809 49.9766C227.405 49.9766 227.07 50.0417 226.803 50.1719C226.542 50.2956 226.347 50.4583 226.217 50.6602C226.093 50.862 226.031 51.0833 226.031 51.3242C226.031 51.5 226.064 51.6595 226.129 51.8027C226.201 51.9395 226.318 52.0664 226.48 52.1836C226.643 52.2943 226.865 52.3984 227.145 52.4961C227.431 52.5938 227.789 52.6882 228.219 52.7793C229.026 52.9486 229.719 53.1667 230.299 53.4336C230.885 53.694 231.334 54.0326 231.646 54.4492C231.959 54.8594 232.115 55.3802 232.115 56.0117C232.115 56.4805 232.014 56.9102 231.812 57.3008C231.617 57.6849 231.331 58.0202 230.953 58.3066C230.576 58.5866 230.123 58.8047 229.596 58.9609C229.075 59.1172 228.489 59.1953 227.838 59.1953C226.881 59.1953 226.07 59.026 225.406 58.6875C224.742 58.3424 224.238 57.903 223.893 57.3691C223.554 56.8288 223.385 56.2689 223.385 55.6895H225.66C225.686 56.1257 225.807 56.474 226.021 56.7344C226.243 56.9883 226.516 57.1738 226.842 57.291C227.174 57.4017 227.516 57.457 227.867 57.457C228.29 57.457 228.645 57.4017 228.932 57.291C229.218 57.1738 229.436 57.0176 229.586 56.8223C229.736 56.6204 229.811 56.3926 229.811 56.1387ZM240.683 56.5098V48.4336H243.046V59H240.82L240.683 56.5098ZM241.015 54.3125L241.806 54.293C241.806 55.0026 241.728 55.6569 241.572 56.2559C241.416 56.8483 241.175 57.3659 240.849 57.8086C240.524 58.2448 240.107 58.5866 239.599 58.834C239.091 59.0749 238.483 59.1953 237.773 59.1953C237.259 59.1953 236.787 59.1204 236.357 58.9707C235.927 58.821 235.556 58.5898 235.244 58.2773C234.938 57.9648 234.7 57.5579 234.531 57.0566C234.362 56.5553 234.277 55.9564 234.277 55.2598V48.4336H236.63V55.2793C236.63 55.6634 236.676 55.9857 236.767 56.2461C236.858 56.5 236.982 56.7051 237.138 56.8613C237.295 57.0176 237.477 57.1283 237.685 57.1934C237.893 57.2585 238.115 57.291 238.349 57.291C239.02 57.291 239.547 57.1608 239.931 56.9004C240.322 56.6335 240.599 56.2754 240.761 55.8262C240.931 55.377 241.015 54.8724 241.015 54.3125ZM248.128 44V59H245.765V44H248.128ZM255.7 48.4336V50.1523H249.743V48.4336H255.7ZM251.462 45.8457H253.815V56.0801C253.815 56.4056 253.861 56.6562 253.952 56.832C254.05 57.0013 254.183 57.1152 254.352 57.1738C254.522 57.2324 254.72 57.2617 254.948 57.2617C255.111 57.2617 255.267 57.252 255.417 57.2324C255.567 57.2129 255.687 57.1934 255.778 57.1738L255.788 58.9707C255.593 59.0293 255.365 59.0814 255.104 59.127C254.85 59.1725 254.557 59.1953 254.225 59.1953C253.685 59.1953 253.207 59.1009 252.79 58.9121C252.373 58.7168 252.048 58.401 251.813 57.9648C251.579 57.5286 251.462 56.9492 251.462 56.2266V45.8457ZM263.623 56.8809V51.8418C263.623 51.4642 263.555 51.1387 263.418 50.8652C263.282 50.5918 263.073 50.3802 262.793 50.2305C262.52 50.0807 262.175 50.0059 261.758 50.0059C261.374 50.0059 261.042 50.071 260.762 50.2012C260.482 50.3314 260.264 50.5072 260.108 50.7285C259.952 50.9499 259.873 51.2005 259.873 51.4805H257.53C257.53 51.0638 257.631 50.6602 257.832 50.2695C258.034 49.8789 258.327 49.5306 258.711 49.2246C259.095 48.9186 259.554 48.6777 260.088 48.502C260.622 48.3262 261.221 48.2383 261.885 48.2383C262.679 48.2383 263.383 48.3717 263.995 48.6387C264.613 48.9056 265.098 49.3092 265.45 49.8496C265.808 50.3835 265.987 51.054 265.987 51.8613V56.5586C265.987 57.0404 266.019 57.4733 266.084 57.8574C266.156 58.235 266.257 58.5638 266.387 58.8438V59H263.975C263.864 58.7461 263.776 58.4238 263.711 58.0332C263.653 57.6361 263.623 57.252 263.623 56.8809ZM263.965 52.5742L263.985 54.0293H262.295C261.859 54.0293 261.475 54.0716 261.143 54.1562C260.811 54.2344 260.534 54.3516 260.313 54.5078C260.092 54.6641 259.926 54.8529 259.815 55.0742C259.704 55.2956 259.649 55.5462 259.649 55.8262C259.649 56.1061 259.714 56.3633 259.844 56.5977C259.974 56.8255 260.163 57.0046 260.411 57.1348C260.664 57.265 260.97 57.3301 261.329 57.3301C261.81 57.3301 262.23 57.2324 262.588 57.0371C262.953 56.8353 263.239 56.5911 263.448 56.3047C263.656 56.0117 263.767 55.735 263.78 55.4746L264.541 56.5195C264.463 56.7865 264.33 57.0729 264.141 57.3789C263.952 57.6849 263.705 57.9779 263.399 58.2578C263.099 58.5312 262.738 58.7559 262.315 58.9316C261.898 59.1074 261.416 59.1953 260.87 59.1953C260.179 59.1953 259.564 59.0586 259.024 58.7852C258.483 58.5052 258.06 58.1309 257.754 57.6621C257.448 57.1868 257.295 56.6497 257.295 56.0508C257.295 55.4909 257.399 54.9961 257.608 54.5664C257.823 54.1302 258.135 53.7656 258.545 53.4727C258.962 53.1797 259.47 52.9583 260.069 52.8086C260.668 52.6523 261.351 52.5742 262.12 52.5742H263.965Z" fill="white"/>
</g>
<path d="M36.5 51.4583H22.8088L29.0975 45.6354L27.5 44.1666L18.5 52.5L27.5 60.8333L29.0863 59.3645L22.8088 53.5416H36.5V51.4583Z" fill="white"/>
<path d="M282.064 171.055V172.355C282.064 173.055 282.002 173.645 281.877 174.125C281.752 174.605 281.572 174.992 281.338 175.285C281.104 175.578 280.82 175.791 280.488 175.924C280.16 176.053 279.789 176.117 279.375 176.117C279.047 176.117 278.744 176.076 278.467 175.994C278.189 175.912 277.939 175.781 277.717 175.602C277.498 175.418 277.311 175.18 277.154 174.887C276.998 174.594 276.879 174.238 276.797 173.82C276.715 173.402 276.674 172.914 276.674 172.355V171.055C276.674 170.355 276.736 169.77 276.861 169.297C276.99 168.824 277.172 168.445 277.406 168.16C277.641 167.871 277.922 167.664 278.25 167.539C278.582 167.414 278.953 167.352 279.363 167.352C279.695 167.352 280 167.393 280.277 167.475C280.559 167.553 280.809 167.68 281.027 167.855C281.246 168.027 281.432 168.258 281.584 168.547C281.74 168.832 281.859 169.182 281.941 169.596C282.023 170.01 282.064 170.496 282.064 171.055ZM280.975 172.531V170.873C280.975 170.49 280.951 170.154 280.904 169.865C280.861 169.572 280.797 169.322 280.711 169.115C280.625 168.908 280.516 168.74 280.383 168.611C280.254 168.482 280.104 168.389 279.932 168.33C279.764 168.268 279.574 168.236 279.363 168.236C279.105 168.236 278.877 168.285 278.678 168.383C278.479 168.477 278.311 168.627 278.174 168.834C278.041 169.041 277.939 169.312 277.869 169.648C277.799 169.984 277.764 170.393 277.764 170.873V172.531C277.764 172.914 277.785 173.252 277.828 173.545C277.875 173.838 277.943 174.092 278.033 174.307C278.123 174.518 278.232 174.691 278.361 174.828C278.49 174.965 278.639 175.066 278.807 175.133C278.979 175.195 279.168 175.227 279.375 175.227C279.641 175.227 279.873 175.176 280.072 175.074C280.271 174.973 280.438 174.814 280.57 174.6C280.707 174.381 280.809 174.102 280.875 173.762C280.941 173.418 280.975 173.008 280.975 172.531ZM287.75 167.469L284.193 176.732H283.261L286.824 167.469H287.75ZM292.779 167.422V176H291.695V168.775L289.509 169.572V168.594L292.609 167.422H292.779ZM301.956 175.109V176H296.372V175.221L299.167 172.109C299.511 171.727 299.776 171.402 299.964 171.137C300.155 170.867 300.288 170.627 300.362 170.416C300.44 170.201 300.479 169.982 300.479 169.76C300.479 169.479 300.421 169.225 300.304 168.998C300.19 168.768 300.022 168.584 299.8 168.447C299.577 168.311 299.307 168.242 298.991 168.242C298.612 168.242 298.296 168.316 298.042 168.465C297.792 168.609 297.604 168.812 297.479 169.074C297.354 169.336 297.292 169.637 297.292 169.977H296.208C296.208 169.496 296.313 169.057 296.524 168.658C296.735 168.26 297.048 167.943 297.462 167.709C297.876 167.471 298.386 167.352 298.991 167.352C299.53 167.352 299.991 167.447 300.374 167.639C300.757 167.826 301.05 168.092 301.253 168.436C301.46 168.775 301.563 169.174 301.563 169.631C301.563 169.881 301.52 170.135 301.434 170.393C301.352 170.646 301.237 170.9 301.089 171.154C300.944 171.408 300.774 171.658 300.579 171.904C300.388 172.15 300.182 172.393 299.964 172.631L297.679 175.109H301.956ZM308.871 171.055V172.355C308.871 173.055 308.809 173.645 308.684 174.125C308.559 174.605 308.379 174.992 308.145 175.285C307.911 175.578 307.627 175.791 307.295 175.924C306.967 176.053 306.596 176.117 306.182 176.117C305.854 176.117 305.551 176.076 305.274 175.994C304.996 175.912 304.746 175.781 304.524 175.602C304.305 175.418 304.118 175.18 303.961 174.887C303.805 174.594 303.686 174.238 303.604 173.82C303.522 173.402 303.481 172.914 303.481 172.355V171.055C303.481 170.355 303.543 169.77 303.668 169.297C303.797 168.824 303.979 168.445 304.213 168.16C304.448 167.871 304.729 167.664 305.057 167.539C305.389 167.414 305.76 167.352 306.17 167.352C306.502 167.352 306.807 167.393 307.084 167.475C307.366 167.553 307.616 167.68 307.834 167.855C308.053 168.027 308.239 168.258 308.391 168.547C308.547 168.832 308.666 169.182 308.748 169.596C308.83 170.01 308.871 170.496 308.871 171.055ZM307.782 172.531V170.873C307.782 170.49 307.758 170.154 307.711 169.865C307.668 169.572 307.604 169.322 307.518 169.115C307.432 168.908 307.323 168.74 307.19 168.611C307.061 168.482 306.911 168.389 306.739 168.33C306.571 168.268 306.381 168.236 306.17 168.236C305.913 168.236 305.684 168.285 305.485 168.383C305.286 168.477 305.118 168.627 304.981 168.834C304.848 169.041 304.746 169.312 304.676 169.648C304.606 169.984 304.571 170.393 304.571 170.873V172.531C304.571 172.914 304.592 173.252 304.635 173.545C304.682 173.838 304.75 174.092 304.84 174.307C304.93 174.518 305.039 174.691 305.168 174.828C305.297 174.965 305.446 175.066 305.614 175.133C305.786 175.195 305.975 175.227 306.182 175.227C306.448 175.227 306.68 175.176 306.879 175.074C307.079 174.973 307.245 174.814 307.377 174.6C307.514 174.381 307.616 174.102 307.682 173.762C307.748 173.418 307.782 173.008 307.782 172.531Z" fill="black" fill-opacity="0.6"/>
<path fill-rule="evenodd" clip-rule="evenodd" d="M0 132C0 129.791 1.79086 128 4 128H11H371H378C380.209 128 382 129.791 382 132V180C382 182.209 380.209 184 378 184H4.00001C1.79087 184 0 182.209 0 180V132ZM371 129H11H4.5C2.567 129 1 130.567 1 132.5V179.5C1 181.433 2.567 183 4.5 183H377.5C379.433 183 381 181.433 381 179.5V132.5C381 130.567 379.433 129 377.5 129H371Z" fill="black" fill-opacity="0.12"/>
<path d="M18.9375 149.625V161H17.4297V149.625H18.9375ZM23.0563 154.352V161H21.6109V152.547H22.9781L23.0563 154.352ZM22.7125 156.453L22.1109 156.43C22.1161 155.852 22.2021 155.318 22.3688 154.828C22.5354 154.333 22.7698 153.904 23.0719 153.539C23.374 153.174 23.7333 152.893 24.15 152.695C24.5719 152.492 25.038 152.391 25.5484 152.391C25.9651 152.391 26.3401 152.448 26.6734 152.562C27.0068 152.672 27.2906 152.849 27.525 153.094C27.7646 153.339 27.9469 153.656 28.0719 154.047C28.1969 154.432 28.2594 154.904 28.2594 155.461V161H26.8063V155.445C26.8063 155.003 26.7411 154.648 26.6109 154.383C26.4807 154.112 26.2906 153.917 26.0406 153.797C25.7906 153.672 25.4833 153.609 25.1188 153.609C24.7594 153.609 24.4313 153.685 24.1344 153.836C23.8427 153.987 23.5901 154.195 23.3766 154.461C23.1682 154.727 23.0042 155.031 22.8844 155.375C22.7698 155.714 22.7125 156.073 22.7125 156.453ZM34.1438 152.547V153.656H29.5734V152.547H34.1438ZM31.1203 150.492H32.5656V158.906C32.5656 159.193 32.6099 159.409 32.6984 159.555C32.787 159.701 32.9016 159.797 33.0422 159.844C33.1828 159.891 33.3339 159.914 33.4953 159.914C33.6151 159.914 33.7401 159.904 33.8703 159.883C34.0057 159.857 34.1073 159.836 34.175 159.82L34.1828 161C34.0682 161.036 33.9172 161.07 33.7297 161.102C33.5474 161.138 33.326 161.156 33.0656 161.156C32.7115 161.156 32.3859 161.086 32.0891 160.945C31.7922 160.805 31.5552 160.57 31.3781 160.242C31.2063 159.909 31.1203 159.461 31.1203 158.898V150.492ZM37.4344 153.875V161H35.9891V152.547H37.3953L37.4344 153.875ZM40.075 152.5L40.0672 153.844C39.9474 153.818 39.8328 153.802 39.7234 153.797C39.6193 153.786 39.4995 153.781 39.3641 153.781C39.0307 153.781 38.7365 153.833 38.4813 153.938C38.226 154.042 38.0099 154.188 37.8328 154.375C37.6557 154.562 37.5151 154.786 37.4109 155.047C37.312 155.302 37.2469 155.583 37.2156 155.891L36.8094 156.125C36.8094 155.615 36.8589 155.135 36.9578 154.688C37.062 154.24 37.2208 153.844 37.4344 153.5C37.6479 153.151 37.9188 152.88 38.2469 152.688C38.5802 152.49 38.976 152.391 39.4344 152.391C39.5385 152.391 39.6583 152.404 39.7938 152.43C39.9292 152.451 40.0229 152.474 40.075 152.5ZM41.0219 156.867V156.688C41.0219 156.078 41.1104 155.513 41.2875 154.992C41.4646 154.466 41.7198 154.01 42.0531 153.625C42.3865 153.234 42.7901 152.932 43.2641 152.719C43.738 152.5 44.2693 152.391 44.8578 152.391C45.4516 152.391 45.9854 152.5 46.4594 152.719C46.9385 152.932 47.3448 153.234 47.6781 153.625C48.0167 154.01 48.2745 154.466 48.4516 154.992C48.6286 155.513 48.7172 156.078 48.7172 156.688V156.867C48.7172 157.477 48.6286 158.042 48.4516 158.562C48.2745 159.083 48.0167 159.539 47.6781 159.93C47.3448 160.315 46.9411 160.617 46.4672 160.836C45.9984 161.049 45.4672 161.156 44.8734 161.156C44.2797 161.156 43.7458 161.049 43.2719 160.836C42.7979 160.617 42.3917 160.315 42.0531 159.93C41.7198 159.539 41.4646 159.083 41.2875 158.562C41.1104 158.042 41.0219 157.477 41.0219 156.867ZM42.4672 156.688V156.867C42.4672 157.289 42.5167 157.688 42.6156 158.062C42.7146 158.432 42.863 158.76 43.0609 159.047C43.2641 159.333 43.5167 159.56 43.8188 159.727C44.1208 159.888 44.4724 159.969 44.8734 159.969C45.2693 159.969 45.6156 159.888 45.9125 159.727C46.2146 159.56 46.4646 159.333 46.6625 159.047C46.8604 158.76 47.0089 158.432 47.1078 158.062C47.212 157.688 47.2641 157.289 47.2641 156.867V156.688C47.2641 156.271 47.212 155.878 47.1078 155.508C47.0089 155.133 46.8578 154.802 46.6547 154.516C46.4568 154.224 46.2068 153.995 45.9047 153.828C45.6078 153.661 45.2589 153.578 44.8578 153.578C44.462 153.578 44.113 153.661 43.8109 153.828C43.5141 153.995 43.2641 154.224 43.0609 154.516C42.863 154.802 42.7146 155.133 42.6156 155.508C42.5167 155.878 42.4672 156.271 42.4672 156.688ZM56.0078 159.359V149H57.4609V161H56.1328L56.0078 159.359ZM50.3203 156.867V156.703C50.3203 156.057 50.3984 155.471 50.5547 154.945C50.7161 154.414 50.9427 153.958 51.2344 153.578C51.5312 153.198 51.8828 152.906 52.2891 152.703C52.7005 152.495 53.1589 152.391 53.6641 152.391C54.1953 152.391 54.6589 152.484 55.0547 152.672C55.4557 152.854 55.7943 153.122 56.0703 153.477C56.3516 153.826 56.5729 154.247 56.7344 154.742C56.8958 155.237 57.0078 155.797 57.0703 156.422V157.141C57.013 157.76 56.901 158.318 56.7344 158.812C56.5729 159.307 56.3516 159.729 56.0703 160.078C55.7943 160.427 55.4557 160.695 55.0547 160.883C54.6536 161.065 54.1849 161.156 53.6484 161.156C53.1536 161.156 52.7005 161.049 52.2891 160.836C51.8828 160.622 51.5312 160.323 51.2344 159.938C50.9427 159.552 50.7161 159.099 50.5547 158.578C50.3984 158.052 50.3203 157.482 50.3203 156.867ZM51.7734 156.703V156.867C51.7734 157.289 51.8151 157.685 51.8984 158.055C51.987 158.424 52.1224 158.75 52.3047 159.031C52.487 159.312 52.7188 159.534 53 159.695C53.2812 159.852 53.6172 159.93 54.0078 159.93C54.487 159.93 54.8802 159.828 55.1875 159.625C55.5 159.422 55.75 159.154 55.9375 158.82C56.125 158.487 56.2708 158.125 56.375 157.734V155.852C56.3125 155.565 56.2214 155.289 56.1016 155.023C55.987 154.753 55.8359 154.513 55.6484 154.305C55.4661 154.091 55.2396 153.922 54.9688 153.797C54.7031 153.672 54.388 153.609 54.0234 153.609C53.6276 153.609 53.2865 153.693 53 153.859C52.7188 154.021 52.487 154.245 52.3047 154.531C52.1224 154.812 51.987 155.141 51.8984 155.516C51.8151 155.885 51.7734 156.281 51.7734 156.703ZM65.0328 159.047V152.547H66.4859V161H65.1031L65.0328 159.047ZM65.3063 157.266L65.9078 157.25C65.9078 157.812 65.8479 158.333 65.7281 158.812C65.6135 159.286 65.426 159.698 65.1656 160.047C64.9052 160.396 64.5641 160.669 64.1422 160.867C63.7203 161.06 63.2073 161.156 62.6031 161.156C62.1917 161.156 61.8141 161.096 61.4703 160.977C61.1318 160.857 60.8401 160.672 60.5953 160.422C60.3505 160.172 60.1604 159.846 60.025 159.445C59.8948 159.044 59.8297 158.562 59.8297 158V152.547H61.275V158.016C61.275 158.396 61.3167 158.711 61.4 158.961C61.4885 159.206 61.6057 159.401 61.7516 159.547C61.9026 159.688 62.0693 159.786 62.2516 159.844C62.4391 159.901 62.6318 159.93 62.8297 159.93C63.4443 159.93 63.9313 159.812 64.2906 159.578C64.65 159.339 64.9078 159.018 65.0641 158.617C65.2255 158.211 65.3063 157.76 65.3063 157.266ZM72.2219 159.969C72.5656 159.969 72.8833 159.898 73.175 159.758C73.4667 159.617 73.7062 159.424 73.8937 159.18C74.0812 158.93 74.188 158.646 74.2141 158.328H75.5891C75.563 158.828 75.3937 159.294 75.0812 159.727C74.774 160.154 74.3703 160.5 73.8703 160.766C73.3703 161.026 72.8208 161.156 72.2219 161.156C71.5865 161.156 71.0318 161.044 70.5578 160.82C70.0891 160.596 69.6984 160.289 69.3859 159.898C69.0786 159.508 68.8469 159.06 68.6906 158.555C68.5396 158.044 68.4641 157.505 68.4641 156.938V156.609C68.4641 156.042 68.5396 155.505 68.6906 155C68.8469 154.49 69.0786 154.039 69.3859 153.648C69.6984 153.258 70.0891 152.951 70.5578 152.727C71.0318 152.503 71.5865 152.391 72.2219 152.391C72.8833 152.391 73.4615 152.526 73.9562 152.797C74.451 153.062 74.8391 153.427 75.1203 153.891C75.4068 154.349 75.563 154.87 75.5891 155.453H74.2141C74.188 155.104 74.0891 154.789 73.9172 154.508C73.7505 154.227 73.5214 154.003 73.2297 153.836C72.9432 153.664 72.6073 153.578 72.2219 153.578C71.7792 153.578 71.4068 153.667 71.1047 153.844C70.8078 154.016 70.5708 154.25 70.3937 154.547C70.2219 154.839 70.0969 155.164 70.0187 155.523C69.9458 155.878 69.9094 156.24 69.9094 156.609V156.938C69.9094 157.307 69.9458 157.672 70.0187 158.031C70.0917 158.391 70.2141 158.716 70.3859 159.008C70.563 159.299 70.8 159.534 71.0969 159.711C71.399 159.883 71.774 159.969 72.2219 159.969ZM80.8719 161.156C80.2833 161.156 79.7495 161.057 79.2703 160.859C78.7964 160.656 78.3875 160.372 78.0438 160.008C77.7052 159.643 77.4448 159.211 77.2625 158.711C77.0802 158.211 76.9891 157.664 76.9891 157.07V156.742C76.9891 156.055 77.0906 155.443 77.2938 154.906C77.4969 154.365 77.7729 153.906 78.1219 153.531C78.4708 153.156 78.8667 152.872 79.3094 152.68C79.7521 152.487 80.2104 152.391 80.6844 152.391C81.2885 152.391 81.8094 152.495 82.2469 152.703C82.6896 152.911 83.0516 153.203 83.3328 153.578C83.6141 153.948 83.8224 154.385 83.9578 154.891C84.0932 155.391 84.1609 155.938 84.1609 156.531V157.18H77.8484V156H82.7156V155.891C82.6948 155.516 82.6167 155.151 82.4813 154.797C82.351 154.443 82.1427 154.151 81.8563 153.922C81.5698 153.693 81.1792 153.578 80.6844 153.578C80.3563 153.578 80.0542 153.648 79.7781 153.789C79.5021 153.924 79.2651 154.128 79.0672 154.398C78.8693 154.669 78.7156 155 78.6063 155.391C78.4969 155.781 78.4422 156.232 78.4422 156.742V157.07C78.4422 157.471 78.4969 157.849 78.6063 158.203C78.7208 158.552 78.8849 158.859 79.0984 159.125C79.3172 159.391 79.5802 159.599 79.8875 159.75C80.2 159.901 80.5542 159.977 80.95 159.977C81.4604 159.977 81.8927 159.872 82.2469 159.664C82.601 159.456 82.9109 159.177 83.1766 158.828L84.0516 159.523C83.8693 159.799 83.6375 160.062 83.3563 160.312C83.075 160.562 82.7286 160.766 82.3172 160.922C81.9109 161.078 81.4292 161.156 80.8719 161.156ZM95.2891 159.047V152.547H96.7422V161H95.3594L95.2891 159.047ZM95.5625 157.266L96.1641 157.25C96.1641 157.812 96.1042 158.333 95.9844 158.812C95.8698 159.286 95.6823 159.698 95.4219 160.047C95.1615 160.396 94.8203 160.669 94.3984 160.867C93.9766 161.06 93.4635 161.156 92.8594 161.156C92.4479 161.156 92.0703 161.096 91.7266 160.977C91.388 160.857 91.0964 160.672 90.8516 160.422C90.6068 160.172 90.4167 159.846 90.2812 159.445C90.151 159.044 90.0859 158.562 90.0859 158V152.547H91.5312V158.016C91.5312 158.396 91.5729 158.711 91.6562 158.961C91.7448 159.206 91.862 159.401 92.0078 159.547C92.1589 159.688 92.3255 159.786 92.5078 159.844C92.6953 159.901 92.888 159.93 93.0859 159.93C93.7005 159.93 94.1875 159.812 94.5469 159.578C94.9062 159.339 95.1641 159.018 95.3203 158.617C95.4818 158.211 95.5625 157.76 95.5625 157.266ZM100.541 154.352V161H99.0953V152.547H100.463L100.541 154.352ZM100.197 156.453L99.5953 156.43C99.6005 155.852 99.6865 155.318 99.8531 154.828C100.02 154.333 100.254 153.904 100.556 153.539C100.858 153.174 101.218 152.893 101.634 152.695C102.056 152.492 102.522 152.391 103.033 152.391C103.449 152.391 103.824 152.448 104.158 152.562C104.491 152.672 104.775 152.849 105.009 153.094C105.249 153.339 105.431 153.656 105.556 154.047C105.681 154.432 105.744 154.904 105.744 155.461V161H104.291V155.445C104.291 155.003 104.226 154.648 104.095 154.383C103.965 154.112 103.775 153.917 103.525 153.797C103.275 153.672 102.968 153.609 102.603 153.609C102.244 153.609 101.916 153.685 101.619 153.836C101.327 153.987 101.074 154.195 100.861 154.461C100.653 154.727 100.489 155.031 100.369 155.375C100.254 155.714 100.197 156.073 100.197 156.453ZM115.747 152.547V153.656H111.177V152.547H115.747ZM112.723 150.492H114.169V158.906C114.169 159.193 114.213 159.409 114.302 159.555C114.39 159.701 114.505 159.797 114.645 159.844C114.786 159.891 114.937 159.914 115.098 159.914C115.218 159.914 115.343 159.904 115.473 159.883C115.609 159.857 115.71 159.836 115.778 159.82L115.786 161C115.671 161.036 115.52 161.07 115.333 161.102C115.151 161.138 114.929 161.156 114.669 161.156C114.315 161.156 113.989 161.086 113.692 160.945C113.395 160.805 113.158 160.57 112.981 160.242C112.809 159.909 112.723 159.461 112.723 158.898V150.492ZM119.162 152.547V161H117.709V152.547H119.162ZM117.6 150.305C117.6 150.07 117.67 149.872 117.811 149.711C117.957 149.549 118.17 149.469 118.452 149.469C118.728 149.469 118.939 149.549 119.084 149.711C119.235 149.872 119.311 150.07 119.311 150.305C119.311 150.529 119.235 150.721 119.084 150.883C118.939 151.039 118.728 151.117 118.452 151.117C118.17 151.117 117.957 151.039 117.811 150.883C117.67 150.721 117.6 150.529 117.6 150.305ZM125.172 152.547V153.656H120.602V152.547H125.172ZM122.148 150.492H123.594V158.906C123.594 159.193 123.638 159.409 123.727 159.555C123.815 159.701 123.93 159.797 124.07 159.844C124.211 159.891 124.362 159.914 124.523 159.914C124.643 159.914 124.768 159.904 124.898 159.883C125.034 159.857 125.135 159.836 125.203 159.82L125.211 161C125.096 161.036 124.945 161.07 124.758 161.102C124.576 161.138 124.354 161.156 124.094 161.156C123.74 161.156 123.414 161.086 123.117 160.945C122.82 160.805 122.583 160.57 122.406 160.242C122.234 159.909 122.148 159.461 122.148 158.898V150.492ZM132.189 159.047V152.547H133.642V161H132.259L132.189 159.047ZM132.463 157.266L133.064 157.25C133.064 157.812 133.004 158.333 132.884 158.812C132.77 159.286 132.582 159.698 132.322 160.047C132.061 160.396 131.72 160.669 131.298 160.867C130.877 161.06 130.364 161.156 129.759 161.156C129.348 161.156 128.97 161.096 128.627 160.977C128.288 160.857 127.996 160.672 127.752 160.422C127.507 160.172 127.317 159.846 127.181 159.445C127.051 159.044 126.986 158.562 126.986 158V152.547H128.431V158.016C128.431 158.396 128.473 158.711 128.556 158.961C128.645 159.206 128.762 159.401 128.908 159.547C129.059 159.688 129.226 159.786 129.408 159.844C129.595 159.901 129.788 159.93 129.986 159.93C130.601 159.93 131.088 159.812 131.447 159.578C131.806 159.339 132.064 159.018 132.22 158.617C132.382 158.211 132.463 157.76 132.463 157.266ZM137.566 149V161H136.113V149H137.566ZM139.653 156.867V156.688C139.653 156.078 139.742 155.513 139.919 154.992C140.096 154.466 140.351 154.01 140.684 153.625C141.018 153.234 141.421 152.932 141.895 152.719C142.369 152.5 142.901 152.391 143.489 152.391C144.083 152.391 144.617 152.5 145.091 152.719C145.57 152.932 145.976 153.234 146.309 153.625C146.648 154.01 146.906 154.466 147.083 154.992C147.26 155.513 147.348 156.078 147.348 156.688V156.867C147.348 157.477 147.26 158.042 147.083 158.562C146.906 159.083 146.648 159.539 146.309 159.93C145.976 160.315 145.572 160.617 145.098 160.836C144.63 161.049 144.098 161.156 143.505 161.156C142.911 161.156 142.377 161.049 141.903 160.836C141.429 160.617 141.023 160.315 140.684 159.93C140.351 159.539 140.096 159.083 139.919 158.562C139.742 158.042 139.653 157.477 139.653 156.867ZM141.098 156.688V156.867C141.098 157.289 141.148 157.688 141.247 158.062C141.346 158.432 141.494 158.76 141.692 159.047C141.895 159.333 142.148 159.56 142.45 159.727C142.752 159.888 143.104 159.969 143.505 159.969C143.901 159.969 144.247 159.888 144.544 159.727C144.846 159.56 145.096 159.333 145.294 159.047C145.492 158.76 145.64 158.432 145.739 158.062C145.843 157.688 145.895 157.289 145.895 156.867V156.688C145.895 156.271 145.843 155.878 145.739 155.508C145.64 155.133 145.489 154.802 145.286 154.516C145.088 154.224 144.838 153.995 144.536 153.828C144.239 153.661 143.89 153.578 143.489 153.578C143.093 153.578 142.744 153.661 142.442 153.828C142.145 153.995 141.895 154.224 141.692 154.516C141.494 154.802 141.346 155.133 141.247 155.508C141.148 155.878 141.098 156.271 141.098 156.688ZM153.453 160.234C153.453 159.99 153.529 159.784 153.68 159.617C153.836 159.445 154.06 159.359 154.352 159.359C154.643 159.359 154.865 159.445 155.016 159.617C155.172 159.784 155.25 159.99 155.25 160.234C155.25 160.474 155.172 160.677 155.016 160.844C154.865 161.01 154.643 161.094 154.352 161.094C154.06 161.094 153.836 161.01 153.68 160.844C153.529 160.677 153.453 160.474 153.453 160.234ZM157.822 160.234C157.822 159.99 157.897 159.784 158.048 159.617C158.205 159.445 158.429 159.359 158.72 159.359C159.012 159.359 159.233 159.445 159.384 159.617C159.541 159.784 159.619 159.99 159.619 160.234C159.619 160.474 159.541 160.677 159.384 160.844C159.233 161.01 159.012 161.094 158.72 161.094C158.429 161.094 158.205 161.01 158.048 160.844C157.897 160.677 157.822 160.474 157.822 160.234ZM162.191 160.234C162.191 159.99 162.266 159.784 162.417 159.617C162.573 159.445 162.797 159.359 163.089 159.359C163.381 159.359 163.602 159.445 163.753 159.617C163.909 159.784 163.988 159.99 163.988 160.234C163.988 160.474 163.909 160.677 163.753 160.844C163.602 161.01 163.381 161.094 163.089 161.094C162.797 161.094 162.573 161.01 162.417 160.844C162.266 160.677 162.191 160.474 162.191 160.234ZM166.559 160.234C166.559 159.99 166.635 159.784 166.786 159.617C166.942 159.445 167.166 159.359 167.458 159.359C167.749 159.359 167.971 159.445 168.122 159.617C168.278 159.784 168.356 159.99 168.356 160.234C168.356 160.474 168.278 160.677 168.122 160.844C167.971 161.01 167.749 161.094 167.458 161.094C167.166 161.094 166.942 161.01 166.786 160.844C166.635 160.677 166.559 160.474 166.559 160.234ZM170.928 160.234C170.928 159.99 171.004 159.784 171.155 159.617C171.311 159.445 171.535 159.359 171.827 159.359C172.118 159.359 172.34 159.445 172.491 159.617C172.647 159.784 172.725 159.99 172.725 160.234C172.725 160.474 172.647 160.677 172.491 160.844C172.34 161.01 172.118 161.094 171.827 161.094C171.535 161.094 171.311 161.01 171.155 160.844C171.004 160.677 170.928 160.474 170.928 160.234ZM175.297 160.234C175.297 159.99 175.372 159.784 175.523 159.617C175.68 159.445 175.904 159.359 176.195 159.359C176.487 159.359 176.708 159.445 176.859 159.617C177.016 159.784 177.094 159.99 177.094 160.234C177.094 160.474 177.016 160.677 176.859 160.844C176.708 161.01 176.487 161.094 176.195 161.094C175.904 161.094 175.68 161.01 175.523 160.844C175.372 160.677 175.297 160.474 175.297 160.234Z" fill="#808080" fill-opacity="0.87"/>
<path d="M307.064 525.055V526.355C307.064 527.055 307.002 527.645 306.877 528.125C306.752 528.605 306.572 528.992 306.338 529.285C306.104 529.578 305.82 529.791 305.488 529.924C305.16 530.053 304.789 530.117 304.375 530.117C304.047 530.117 303.744 530.076 303.467 529.994C303.189 529.912 302.939 529.781 302.717 529.602C302.498 529.418 302.311 529.18 302.154 528.887C301.998 528.594 301.879 528.238 301.797 527.82C301.715 527.402 301.674 526.914 301.674 526.355V525.055C301.674 524.355 301.736 523.77 301.861 523.297C301.99 522.824 302.172 522.445 302.406 522.16C302.641 521.871 302.922 521.664 303.25 521.539C303.582 521.414 303.953 521.352 304.363 521.352C304.695 521.352 305 521.393 305.277 521.475C305.559 521.553 305.809 521.68 306.027 521.855C306.246 522.027 306.432 522.258 306.584 522.547C306.74 522.832 306.859 523.182 306.941 523.596C307.023 524.01 307.064 524.496 307.064 525.055ZM305.975 526.531V524.873C305.975 524.49 305.951 524.154 305.904 523.865C305.861 523.572 305.797 523.322 305.711 523.115C305.625 522.908 305.516 522.74 305.383 522.611C305.254 522.482 305.104 522.389 304.932 522.33C304.764 522.268 304.574 522.236 304.363 522.236C304.105 522.236 303.877 522.285 303.678 522.383C303.479 522.477 303.311 522.627 303.174 522.834C303.041 523.041 302.939 523.312 302.869 523.648C302.799 523.984 302.764 524.393 302.764 524.873V526.531C302.764 526.914 302.785 527.252 302.828 527.545C302.875 527.838 302.943 528.092 303.033 528.307C303.123 528.518 303.232 528.691 303.361 528.828C303.49 528.965 303.639 529.066 303.807 529.133C303.979 529.195 304.168 529.227 304.375 529.227C304.641 529.227 304.873 529.176 305.072 529.074C305.271 528.973 305.438 528.814 305.57 528.6C305.707 528.381 305.809 528.102 305.875 527.762C305.941 527.418 305.975 527.008 305.975 526.531ZM312.75 521.469L309.193 530.732H308.261L311.824 521.469H312.75ZM318.376 521.457H318.47V522.377H318.376C317.802 522.377 317.321 522.471 316.935 522.658C316.548 522.842 316.241 523.09 316.015 523.402C315.788 523.711 315.624 524.059 315.523 524.445C315.425 524.832 315.376 525.225 315.376 525.623V526.877C315.376 527.256 315.421 527.592 315.511 527.885C315.601 528.174 315.724 528.418 315.88 528.617C316.036 528.816 316.212 528.967 316.407 529.068C316.607 529.17 316.814 529.221 317.029 529.221C317.279 529.221 317.501 529.174 317.696 529.08C317.892 528.982 318.056 528.848 318.189 528.676C318.325 528.5 318.429 528.293 318.499 528.055C318.57 527.816 318.605 527.555 318.605 527.27C318.605 527.016 318.573 526.771 318.511 526.537C318.448 526.299 318.353 526.088 318.224 525.904C318.095 525.717 317.933 525.57 317.738 525.465C317.546 525.355 317.318 525.301 317.052 525.301C316.751 525.301 316.47 525.375 316.208 525.523C315.95 525.668 315.738 525.859 315.57 526.098C315.405 526.332 315.312 526.588 315.288 526.865L314.714 526.859C314.769 526.422 314.87 526.049 315.019 525.74C315.171 525.428 315.359 525.174 315.581 524.979C315.808 524.779 316.06 524.635 316.337 524.545C316.618 524.451 316.915 524.404 317.228 524.404C317.654 524.404 318.021 524.484 318.329 524.645C318.638 524.805 318.892 525.02 319.091 525.289C319.29 525.555 319.437 525.855 319.53 526.191C319.628 526.523 319.677 526.865 319.677 527.217C319.677 527.619 319.62 527.996 319.507 528.348C319.394 528.699 319.224 529.008 318.997 529.273C318.775 529.539 318.499 529.746 318.171 529.895C317.843 530.043 317.462 530.117 317.029 530.117C316.568 530.117 316.165 530.023 315.821 529.836C315.478 529.645 315.193 529.391 314.966 529.074C314.739 528.758 314.57 528.406 314.456 528.02C314.343 527.633 314.286 527.24 314.286 526.842V526.332C314.286 525.73 314.347 525.141 314.468 524.562C314.589 523.984 314.798 523.461 315.095 522.992C315.396 522.523 315.812 522.15 316.343 521.873C316.874 521.596 317.552 521.457 318.376 521.457ZM326.721 525.055V526.355C326.721 527.055 326.659 527.645 326.534 528.125C326.409 528.605 326.229 528.992 325.995 529.285C325.761 529.578 325.477 529.791 325.145 529.924C324.817 530.053 324.446 530.117 324.032 530.117C323.704 530.117 323.401 530.076 323.124 529.994C322.846 529.912 322.596 529.781 322.374 529.602C322.155 529.418 321.968 529.18 321.811 528.887C321.655 528.594 321.536 528.238 321.454 527.82C321.372 527.402 321.331 526.914 321.331 526.355V525.055C321.331 524.355 321.393 523.77 321.518 523.297C321.647 522.824 321.829 522.445 322.063 522.16C322.298 521.871 322.579 521.664 322.907 521.539C323.239 521.414 323.61 521.352 324.02 521.352C324.352 521.352 324.657 521.393 324.934 521.475C325.216 521.553 325.466 521.68 325.684 521.855C325.903 522.027 326.089 522.258 326.241 522.547C326.397 522.832 326.516 523.182 326.598 523.596C326.68 524.01 326.721 524.496 326.721 525.055ZM325.632 526.531V524.873C325.632 524.49 325.608 524.154 325.561 523.865C325.518 523.572 325.454 523.322 325.368 523.115C325.282 522.908 325.173 522.74 325.04 522.611C324.911 522.482 324.761 522.389 324.589 522.33C324.421 522.268 324.231 522.236 324.02 522.236C323.763 522.236 323.534 522.285 323.335 522.383C323.136 522.477 322.968 522.627 322.831 522.834C322.698 523.041 322.596 523.312 322.526 523.648C322.456 523.984 322.421 524.393 322.421 524.873V526.531C322.421 526.914 322.442 527.252 322.485 527.545C322.532 527.838 322.6 528.092 322.69 528.307C322.78 528.518 322.889 528.691 323.018 528.828C323.147 528.965 323.296 529.066 323.464 529.133C323.636 529.195 323.825 529.227 324.032 529.227C324.298 529.227 324.53 529.176 324.729 529.074C324.929 528.973 325.095 528.814 325.227 528.6C325.364 528.381 325.466 528.102 325.532 527.762C325.598 527.418 325.632 527.008 325.632 526.531ZM333.871 525.055V526.355C333.871 527.055 333.809 527.645 333.684 528.125C333.559 528.605 333.379 528.992 333.145 529.285C332.911 529.578 332.627 529.791 332.295 529.924C331.967 530.053 331.596 530.117 331.182 530.117C330.854 530.117 330.551 530.076 330.274 529.994C329.996 529.912 329.746 529.781 329.524 529.602C329.305 529.418 329.118 529.18 328.961 528.887C328.805 528.594 328.686 528.238 328.604 527.82C328.522 527.402 328.481 526.914 328.481 526.355V525.055C328.481 524.355 328.543 523.77 328.668 523.297C328.797 522.824 328.979 522.445 329.213 522.16C329.448 521.871 329.729 521.664 330.057 521.539C330.389 521.414 330.76 521.352 331.17 521.352C331.502 521.352 331.807 521.393 332.084 521.475C332.366 521.553 332.616 521.68 332.834 521.855C333.053 522.027 333.239 522.258 333.391 522.547C333.547 522.832 333.666 523.182 333.748 523.596C333.83 524.01 333.871 524.496 333.871 525.055ZM332.782 526.531V524.873C332.782 524.49 332.758 524.154 332.711 523.865C332.668 523.572 332.604 523.322 332.518 523.115C332.432 522.908 332.323 522.74 332.19 522.611C332.061 522.482 331.911 522.389 331.739 522.33C331.571 522.268 331.381 522.236 331.17 522.236C330.913 522.236 330.684 522.285 330.485 522.383C330.286 522.477 330.118 522.627 329.981 522.834C329.848 523.041 329.746 523.312 329.676 523.648C329.606 523.984 329.571 524.393 329.571 524.873V526.531C329.571 526.914 329.592 527.252 329.635 527.545C329.682 527.838 329.75 528.092 329.84 528.307C329.93 528.518 330.039 528.691 330.168 528.828C330.297 528.965 330.446 529.066 330.614 529.133C330.786 529.195 330.975 529.227 331.182 529.227C331.448 529.227 331.68 529.176 331.879 529.074C332.079 528.973 332.245 528.814 332.377 528.6C332.514 528.381 332.616 528.102 332.682 527.762C332.748 527.418 332.782 527.008 332.782 526.531Z" fill="black" fill-opacity="0.6"/>
<path fill-rule="evenodd" clip-rule="evenodd" d="M-9 195C-9 192.791 -7.20914 191 -5 191H1.74084H353.259H360C362.209 191 364 192.791 364 195V551C364 553.209 362.209 555 360 555H-4.99999C-7.20913 555 -9 553.209 -9 551V195ZM353.259 192.006H1.74084H-4.52356C-6.45656 192.006 -8.02356 193.573 -8.02356 195.506V550.494C-8.02356 552.427 -6.45655 553.994 -4.52355 553.994H359.524C361.457 553.994 363.024 552.427 363.024 550.494V195.506C363.024 193.573 361.457 192.006 359.524 192.006H353.259Z" fill="black" fill-opacity="0.12"/>
<path d="M23.5469 221.773V223H17.5234V221.773H23.5469ZM17.8281 211.625V223H16.3203V211.625H17.8281ZM22.75 216.516V217.742H17.5234V216.516H22.75ZM23.4688 211.625V212.859H17.5234V211.625H23.4688ZM30.2672 220.758C30.2672 220.549 30.2203 220.357 30.1266 220.18C30.038 219.997 29.8531 219.833 29.5719 219.688C29.2958 219.536 28.8792 219.406 28.3219 219.297C27.8531 219.198 27.4286 219.081 27.0484 218.945C26.6734 218.81 26.3531 218.646 26.0875 218.453C25.8271 218.26 25.6266 218.034 25.4859 217.773C25.3453 217.513 25.275 217.208 25.275 216.859C25.275 216.526 25.3479 216.211 25.4937 215.914C25.6448 215.617 25.8557 215.354 26.1266 215.125C26.4026 214.896 26.7333 214.716 27.1187 214.586C27.5042 214.456 27.9339 214.391 28.4078 214.391C29.0849 214.391 29.663 214.51 30.1422 214.75C30.6214 214.99 30.9885 215.31 31.2437 215.711C31.499 216.107 31.6266 216.547 31.6266 217.031H30.1812C30.1812 216.797 30.1109 216.57 29.9703 216.352C29.8349 216.128 29.6344 215.943 29.3687 215.797C29.1083 215.651 28.788 215.578 28.4078 215.578C28.0068 215.578 27.6812 215.641 27.4312 215.766C27.1865 215.885 27.0068 216.039 26.8922 216.227C26.7828 216.414 26.7281 216.612 26.7281 216.82C26.7281 216.977 26.7542 217.117 26.8062 217.242C26.8635 217.362 26.9625 217.474 27.1031 217.578C27.2437 217.677 27.4417 217.771 27.6969 217.859C27.9521 217.948 28.2776 218.036 28.6734 218.125C29.3661 218.281 29.9365 218.469 30.3844 218.688C30.8323 218.906 31.1656 219.174 31.3844 219.492C31.6031 219.81 31.7125 220.195 31.7125 220.648C31.7125 221.018 31.6344 221.357 31.4781 221.664C31.3271 221.971 31.1057 222.237 30.8141 222.461C30.5276 222.68 30.1839 222.852 29.7828 222.977C29.387 223.096 28.9417 223.156 28.4469 223.156C27.7021 223.156 27.0719 223.023 26.5562 222.758C26.0406 222.492 25.65 222.148 25.3844 221.727C25.1187 221.305 24.9859 220.859 24.9859 220.391H26.4391C26.4599 220.786 26.5745 221.102 26.7828 221.336C26.9911 221.565 27.2464 221.729 27.5484 221.828C27.8505 221.922 28.15 221.969 28.4469 221.969C28.8427 221.969 29.1734 221.917 29.4391 221.812C29.7099 221.708 29.9156 221.565 30.0562 221.383C30.1969 221.201 30.2672 220.992 30.2672 220.758ZM37.1437 221.969C37.4875 221.969 37.8052 221.898 38.0969 221.758C38.3885 221.617 38.6281 221.424 38.8156 221.18C39.0031 220.93 39.1099 220.646 39.1359 220.328H40.5109C40.4849 220.828 40.3156 221.294 40.0031 221.727C39.6958 222.154 39.2922 222.5 38.7922 222.766C38.2922 223.026 37.7427 223.156 37.1437 223.156C36.5083 223.156 35.9536 223.044 35.4797 222.82C35.0109 222.596 34.6203 222.289 34.3078 221.898C34.0005 221.508 33.7687 221.06 33.6125 220.555C33.4615 220.044 33.3859 219.505 33.3859 218.938V218.609C33.3859 218.042 33.4615 217.505 33.6125 217C33.7687 216.49 34.0005 216.039 34.3078 215.648C34.6203 215.258 35.0109 214.951 35.4797 214.727C35.9536 214.503 36.5083 214.391 37.1437 214.391C37.8052 214.391 38.3833 214.526 38.8781 214.797C39.3729 215.062 39.7609 215.427 40.0422 215.891C40.3286 216.349 40.4849 216.87 40.5109 217.453H39.1359C39.1099 217.104 39.0109 216.789 38.8391 216.508C38.6724 216.227 38.4432 216.003 38.1516 215.836C37.8651 215.664 37.5292 215.578 37.1437 215.578C36.701 215.578 36.3286 215.667 36.0266 215.844C35.7297 216.016 35.4927 216.25 35.3156 216.547C35.1437 216.839 35.0187 217.164 34.9406 217.523C34.8677 217.878 34.8312 218.24 34.8312 218.609V218.938C34.8312 219.307 34.8677 219.672 34.9406 220.031C35.0135 220.391 35.1359 220.716 35.3078 221.008C35.4849 221.299 35.7219 221.534 36.0187 221.711C36.3208 221.883 36.6958 221.969 37.1437 221.969ZM43.7313 215.875V223H42.2859V214.547H43.6922L43.7313 215.875ZM46.3719 214.5L46.3641 215.844C46.2443 215.818 46.1297 215.802 46.0203 215.797C45.9161 215.786 45.7964 215.781 45.6609 215.781C45.3276 215.781 45.0333 215.833 44.7781 215.938C44.5229 216.042 44.3068 216.188 44.1297 216.375C43.9526 216.562 43.812 216.786 43.7078 217.047C43.6089 217.302 43.5438 217.583 43.5125 217.891L43.1063 218.125C43.1063 217.615 43.1557 217.135 43.2547 216.688C43.3589 216.24 43.5177 215.844 43.7313 215.5C43.9448 215.151 44.2156 214.88 44.5438 214.688C44.8771 214.49 45.2729 214.391 45.7313 214.391C45.8354 214.391 45.9552 214.404 46.0906 214.43C46.226 214.451 46.3198 214.474 46.3719 214.5ZM49.4281 214.547V223H47.975V214.547H49.4281ZM47.8656 212.305C47.8656 212.07 47.9359 211.872 48.0766 211.711C48.2224 211.549 48.4359 211.469 48.7172 211.469C48.9932 211.469 49.2042 211.549 49.35 211.711C49.501 211.872 49.5766 212.07 49.5766 212.305C49.5766 212.529 49.501 212.721 49.35 212.883C49.2042 213.039 48.9932 213.117 48.7172 213.117C48.4359 213.117 48.2224 213.039 48.0766 212.883C47.9359 212.721 47.8656 212.529 47.8656 212.305ZM51.8906 211H53.3438V221.359L53.2188 223H51.8906V211ZM59.0547 218.703V218.867C59.0547 219.482 58.9818 220.052 58.8359 220.578C58.6901 221.099 58.4766 221.552 58.1953 221.938C57.9141 222.323 57.5703 222.622 57.1641 222.836C56.7578 223.049 56.2917 223.156 55.7656 223.156C55.2292 223.156 54.7578 223.065 54.3516 222.883C53.9505 222.695 53.612 222.427 53.3359 222.078C53.0599 221.729 52.8385 221.307 52.6719 220.812C52.5104 220.318 52.3984 219.76 52.3359 219.141V218.422C52.3984 217.797 52.5104 217.237 52.6719 216.742C52.8385 216.247 53.0599 215.826 53.3359 215.477C53.612 215.122 53.9505 214.854 54.3516 214.672C54.7526 214.484 55.2188 214.391 55.75 214.391C56.2812 214.391 56.7526 214.495 57.1641 214.703C57.5755 214.906 57.9193 215.198 58.1953 215.578C58.4766 215.958 58.6901 216.414 58.8359 216.945C58.9818 217.471 59.0547 218.057 59.0547 218.703ZM57.6016 218.867V218.703C57.6016 218.281 57.5625 217.885 57.4844 217.516C57.4062 217.141 57.2812 216.812 57.1094 216.531C56.9375 216.245 56.7109 216.021 56.4297 215.859C56.1484 215.693 55.8021 215.609 55.3906 215.609C55.026 215.609 54.7083 215.672 54.4375 215.797C54.1719 215.922 53.9453 216.091 53.7578 216.305C53.5703 216.513 53.4167 216.753 53.2969 217.023C53.1823 217.289 53.0964 217.565 53.0391 217.852V219.734C53.1224 220.099 53.2578 220.451 53.4453 220.789C53.638 221.122 53.8932 221.396 54.2109 221.609C54.5339 221.823 54.9323 221.93 55.4062 221.93C55.7969 221.93 56.1302 221.852 56.4062 221.695C56.6875 221.534 56.9141 221.312 57.0859 221.031C57.263 220.75 57.3932 220.424 57.4766 220.055C57.5599 219.685 57.6016 219.289 57.6016 218.867ZM64.5406 223.156C63.9521 223.156 63.4182 223.057 62.9391 222.859C62.4651 222.656 62.0563 222.372 61.7125 222.008C61.374 221.643 61.1135 221.211 60.9313 220.711C60.749 220.211 60.6578 219.664 60.6578 219.07V218.742C60.6578 218.055 60.7594 217.443 60.9625 216.906C61.1656 216.365 61.4417 215.906 61.7906 215.531C62.1396 215.156 62.5354 214.872 62.9781 214.68C63.4208 214.487 63.8792 214.391 64.3531 214.391C64.9573 214.391 65.4781 214.495 65.9156 214.703C66.3583 214.911 66.7203 215.203 67.0016 215.578C67.2828 215.948 67.4911 216.385 67.6266 216.891C67.762 217.391 67.8297 217.938 67.8297 218.531V219.18H61.5172V218H66.3844V217.891C66.3635 217.516 66.2854 217.151 66.15 216.797C66.0198 216.443 65.8115 216.151 65.525 215.922C65.2385 215.693 64.8479 215.578 64.3531 215.578C64.025 215.578 63.7229 215.648 63.4469 215.789C63.1708 215.924 62.9339 216.128 62.7359 216.398C62.538 216.669 62.3844 217 62.275 217.391C62.1656 217.781 62.1109 218.232 62.1109 218.742V219.07C62.1109 219.471 62.1656 219.849 62.275 220.203C62.3896 220.552 62.5536 220.859 62.7672 221.125C62.9859 221.391 63.249 221.599 63.5563 221.75C63.8688 221.901 64.2229 221.977 64.6188 221.977C65.1292 221.977 65.5615 221.872 65.9156 221.664C66.2698 221.456 66.5797 221.177 66.8453 220.828L67.7203 221.523C67.538 221.799 67.3063 222.062 67.025 222.312C66.7438 222.562 66.3974 222.766 65.9859 222.922C65.5797 223.078 65.0979 223.156 64.5406 223.156ZM78.9578 221.047V214.547H80.4109V223H79.0281L78.9578 221.047ZM79.2313 219.266L79.8328 219.25C79.8328 219.812 79.7729 220.333 79.6531 220.812C79.5385 221.286 79.351 221.698 79.0906 222.047C78.8302 222.396 78.4891 222.669 78.0672 222.867C77.6453 223.06 77.1323 223.156 76.5281 223.156C76.1167 223.156 75.7391 223.096 75.3953 222.977C75.0568 222.857 74.7651 222.672 74.5203 222.422C74.2755 222.172 74.0854 221.846 73.95 221.445C73.8198 221.044 73.7547 220.562 73.7547 220V214.547H75.2V220.016C75.2 220.396 75.2417 220.711 75.325 220.961C75.4135 221.206 75.5307 221.401 75.6766 221.547C75.8276 221.688 75.9943 221.786 76.1766 221.844C76.3641 221.901 76.5568 221.93 76.7547 221.93C77.3693 221.93 77.8563 221.812 78.2156 221.578C78.575 221.339 78.8328 221.018 78.9891 220.617C79.1505 220.211 79.2313 219.76 79.2313 219.266ZM84.2094 216.352V223H82.7641V214.547H84.1312L84.2094 216.352ZM83.8656 218.453L83.2641 218.43C83.2693 217.852 83.3552 217.318 83.5219 216.828C83.6885 216.333 83.9229 215.904 84.225 215.539C84.5271 215.174 84.8865 214.893 85.3031 214.695C85.725 214.492 86.1911 214.391 86.7016 214.391C87.1182 214.391 87.4932 214.448 87.8266 214.562C88.1599 214.672 88.4437 214.849 88.6781 215.094C88.9177 215.339 89.1 215.656 89.225 216.047C89.35 216.432 89.4125 216.904 89.4125 217.461V223H87.9594V217.445C87.9594 217.003 87.8943 216.648 87.7641 216.383C87.6339 216.112 87.4437 215.917 87.1937 215.797C86.9437 215.672 86.6365 215.609 86.2719 215.609C85.9125 215.609 85.5844 215.685 85.2875 215.836C84.9958 215.987 84.7432 216.195 84.5297 216.461C84.3214 216.727 84.1573 217.031 84.0375 217.375C83.9229 217.714 83.8656 218.073 83.8656 218.453ZM96.7422 221.555V217.203C96.7422 216.87 96.6745 216.581 96.5391 216.336C96.4089 216.086 96.2109 215.893 95.9453 215.758C95.6797 215.622 95.3516 215.555 94.9609 215.555C94.5964 215.555 94.276 215.617 94 215.742C93.7292 215.867 93.5156 216.031 93.3594 216.234C93.2083 216.438 93.1328 216.656 93.1328 216.891H91.6875C91.6875 216.589 91.7656 216.289 91.9219 215.992C92.0781 215.695 92.3021 215.427 92.5938 215.188C92.8906 214.943 93.2448 214.75 93.6562 214.609C94.0729 214.464 94.5365 214.391 95.0469 214.391C95.6615 214.391 96.2031 214.495 96.6719 214.703C97.1458 214.911 97.5156 215.227 97.7812 215.648C98.0521 216.065 98.1875 216.589 98.1875 217.219V221.156C98.1875 221.438 98.2109 221.737 98.2578 222.055C98.3099 222.372 98.3854 222.646 98.4844 222.875V223H96.9766C96.9036 222.833 96.8464 222.612 96.8047 222.336C96.763 222.055 96.7422 221.794 96.7422 221.555ZM96.9922 217.875L97.0078 218.891H95.5469C95.1354 218.891 94.7682 218.924 94.4453 218.992C94.1224 219.055 93.8516 219.151 93.6328 219.281C93.4141 219.411 93.2474 219.576 93.1328 219.773C93.0182 219.966 92.9609 220.193 92.9609 220.453C92.9609 220.719 93.0208 220.961 93.1406 221.18C93.2604 221.398 93.4401 221.573 93.6797 221.703C93.9245 221.828 94.224 221.891 94.5781 221.891C95.0208 221.891 95.4115 221.797 95.75 221.609C96.0885 221.422 96.3568 221.193 96.5547 220.922C96.7578 220.651 96.8672 220.388 96.8828 220.133L97.5 220.828C97.4635 221.047 97.3646 221.289 97.2031 221.555C97.0417 221.82 96.8255 222.076 96.5547 222.32C96.2891 222.56 95.9714 222.76 95.6016 222.922C95.237 223.078 94.8255 223.156 94.3672 223.156C93.7943 223.156 93.2917 223.044 92.8594 222.82C92.4323 222.596 92.099 222.297 91.8594 221.922C91.625 221.542 91.5078 221.117 91.5078 220.648C91.5078 220.195 91.5964 219.797 91.7734 219.453C91.9505 219.104 92.2057 218.815 92.5391 218.586C92.8724 218.352 93.2734 218.174 93.7422 218.055C94.2109 217.935 94.7344 217.875 95.3125 217.875H96.9922ZM104.722 211H106.175V221.359L106.05 223H104.722V211ZM111.886 218.703V218.867C111.886 219.482 111.813 220.052 111.667 220.578C111.521 221.099 111.308 221.552 111.027 221.938C110.745 222.323 110.402 222.622 109.995 222.836C109.589 223.049 109.123 223.156 108.597 223.156C108.06 223.156 107.589 223.065 107.183 222.883C106.782 222.695 106.443 222.427 106.167 222.078C105.891 221.729 105.67 221.307 105.503 220.812C105.342 220.318 105.23 219.76 105.167 219.141V218.422C105.23 217.797 105.342 217.237 105.503 216.742C105.67 216.247 105.891 215.826 106.167 215.477C106.443 215.122 106.782 214.854 107.183 214.672C107.584 214.484 108.05 214.391 108.581 214.391C109.113 214.391 109.584 214.495 109.995 214.703C110.407 214.906 110.751 215.198 111.027 215.578C111.308 215.958 111.521 216.414 111.667 216.945C111.813 217.471 111.886 218.057 111.886 218.703ZM110.433 218.867V218.703C110.433 218.281 110.394 217.885 110.316 217.516C110.238 217.141 110.113 216.812 109.941 216.531C109.769 216.245 109.542 216.021 109.261 215.859C108.98 215.693 108.633 215.609 108.222 215.609C107.857 215.609 107.54 215.672 107.269 215.797C107.003 215.922 106.777 216.091 106.589 216.305C106.402 216.513 106.248 216.753 106.128 217.023C106.014 217.289 105.928 217.565 105.87 217.852V219.734C105.954 220.099 106.089 220.451 106.277 220.789C106.469 221.122 106.724 221.396 107.042 221.609C107.365 221.823 107.764 221.93 108.238 221.93C108.628 221.93 108.961 221.852 109.238 221.695C109.519 221.534 109.745 221.312 109.917 221.031C110.094 220.75 110.224 220.424 110.308 220.055C110.391 219.685 110.433 219.289 110.433 218.867ZM115.309 215.875V223H113.864V214.547H115.27L115.309 215.875ZM117.95 214.5L117.942 215.844C117.822 215.818 117.708 215.802 117.598 215.797C117.494 215.786 117.374 215.781 117.239 215.781C116.906 215.781 116.611 215.833 116.356 215.938C116.101 216.042 115.885 216.188 115.708 216.375C115.531 216.562 115.39 216.786 115.286 217.047C115.187 217.302 115.122 217.583 115.091 217.891L114.684 218.125C114.684 217.615 114.734 217.135 114.833 216.688C114.937 216.24 115.096 215.844 115.309 215.5C115.523 215.151 115.794 214.88 116.122 214.688C116.455 214.49 116.851 214.391 117.309 214.391C117.414 214.391 117.533 214.404 117.669 214.43C117.804 214.451 117.898 214.474 117.95 214.5ZM122.787 223.156C122.199 223.156 121.665 223.057 121.186 222.859C120.712 222.656 120.303 222.372 119.959 222.008C119.621 221.643 119.36 221.211 119.178 220.711C118.996 220.211 118.905 219.664 118.905 219.07V218.742C118.905 218.055 119.006 217.443 119.209 216.906C119.412 216.365 119.689 215.906 120.037 215.531C120.386 215.156 120.782 214.872 121.225 214.68C121.668 214.487 122.126 214.391 122.6 214.391C123.204 214.391 123.725 214.495 124.162 214.703C124.605 214.911 124.967 215.203 125.248 215.578C125.53 215.948 125.738 216.385 125.873 216.891C126.009 217.391 126.077 217.938 126.077 218.531V219.18H119.764V218H124.631V217.891C124.61 217.516 124.532 217.151 124.397 216.797C124.267 216.443 124.058 216.151 123.772 215.922C123.485 215.693 123.095 215.578 122.6 215.578C122.272 215.578 121.97 215.648 121.694 215.789C121.418 215.924 121.181 216.128 120.983 216.398C120.785 216.669 120.631 217 120.522 217.391C120.412 217.781 120.358 218.232 120.358 218.742V219.07C120.358 219.471 120.412 219.849 120.522 220.203C120.636 220.552 120.801 220.859 121.014 221.125C121.233 221.391 121.496 221.599 121.803 221.75C122.116 221.901 122.47 221.977 122.866 221.977C123.376 221.977 123.808 221.872 124.162 221.664C124.517 221.456 124.827 221.177 125.092 220.828L125.967 221.523C125.785 221.799 125.553 222.062 125.272 222.312C124.991 222.562 124.644 222.766 124.233 222.922C123.827 223.078 123.345 223.156 122.787 223.156ZM130.375 221.695L132.688 214.547H134.164L131.125 223H130.156L130.375 221.695ZM128.445 214.547L130.828 221.734L130.992 223H130.023L126.961 214.547H128.445ZM139.103 223.156C138.515 223.156 137.981 223.057 137.502 222.859C137.028 222.656 136.619 222.372 136.275 222.008C135.936 221.643 135.676 221.211 135.494 220.711C135.311 220.211 135.22 219.664 135.22 219.07V218.742C135.22 218.055 135.322 217.443 135.525 216.906C135.728 216.365 136.004 215.906 136.353 215.531C136.702 215.156 137.098 214.872 137.541 214.68C137.983 214.487 138.442 214.391 138.916 214.391C139.52 214.391 140.041 214.495 140.478 214.703C140.921 214.911 141.283 215.203 141.564 215.578C141.845 215.948 142.054 216.385 142.189 216.891C142.324 217.391 142.392 217.938 142.392 218.531V219.18H136.08V218H140.947V217.891C140.926 217.516 140.848 217.151 140.713 216.797C140.582 216.443 140.374 216.151 140.088 215.922C139.801 215.693 139.41 215.578 138.916 215.578C138.588 215.578 138.285 215.648 138.009 215.789C137.733 215.924 137.496 216.128 137.298 216.398C137.101 216.669 136.947 217 136.838 217.391C136.728 217.781 136.673 218.232 136.673 218.742V219.07C136.673 219.471 136.728 219.849 136.838 220.203C136.952 220.552 137.116 220.859 137.33 221.125C137.548 221.391 137.811 221.599 138.119 221.75C138.431 221.901 138.785 221.977 139.181 221.977C139.692 221.977 140.124 221.872 140.478 221.664C140.832 221.456 141.142 221.177 141.408 220.828L142.283 221.523C142.101 221.799 141.869 222.062 141.588 222.312C141.306 222.562 140.96 222.766 140.548 222.922C140.142 223.078 139.66 223.156 139.103 223.156ZM153.677 221.359V211H155.13V223H153.802L153.677 221.359ZM147.989 218.867V218.703C147.989 218.057 148.067 217.471 148.223 216.945C148.385 216.414 148.611 215.958 148.903 215.578C149.2 215.198 149.552 214.906 149.958 214.703C150.369 214.495 150.828 214.391 151.333 214.391C151.864 214.391 152.328 214.484 152.723 214.672C153.124 214.854 153.463 215.122 153.739 215.477C154.02 215.826 154.242 216.247 154.403 216.742C154.565 217.237 154.677 217.797 154.739 218.422V219.141C154.682 219.76 154.57 220.318 154.403 220.812C154.242 221.307 154.02 221.729 153.739 222.078C153.463 222.427 153.124 222.695 152.723 222.883C152.322 223.065 151.854 223.156 151.317 223.156C150.822 223.156 150.369 223.049 149.958 222.836C149.552 222.622 149.2 222.323 148.903 221.938C148.611 221.552 148.385 221.099 148.223 220.578C148.067 220.052 147.989 219.482 147.989 218.867ZM149.442 218.703V218.867C149.442 219.289 149.484 219.685 149.567 220.055C149.656 220.424 149.791 220.75 149.973 221.031C150.156 221.312 150.387 221.534 150.669 221.695C150.95 221.852 151.286 221.93 151.677 221.93C152.156 221.93 152.549 221.828 152.856 221.625C153.169 221.422 153.419 221.154 153.606 220.82C153.794 220.487 153.94 220.125 154.044 219.734V217.852C153.981 217.565 153.89 217.289 153.77 217.023C153.656 216.753 153.505 216.513 153.317 216.305C153.135 216.091 152.908 215.922 152.637 215.797C152.372 215.672 152.057 215.609 151.692 215.609C151.296 215.609 150.955 215.693 150.669 215.859C150.387 216.021 150.156 216.245 149.973 216.531C149.791 216.812 149.656 217.141 149.567 217.516C149.484 217.885 149.442 218.281 149.442 218.703ZM161.038 223.156C160.449 223.156 159.915 223.057 159.436 222.859C158.962 222.656 158.553 222.372 158.209 222.008C157.871 221.643 157.61 221.211 157.428 220.711C157.246 220.211 157.155 219.664 157.155 219.07V218.742C157.155 218.055 157.256 217.443 157.459 216.906C157.663 216.365 157.939 215.906 158.288 215.531C158.636 215.156 159.032 214.872 159.475 214.68C159.918 214.487 160.376 214.391 160.85 214.391C161.454 214.391 161.975 214.495 162.413 214.703C162.855 214.911 163.217 215.203 163.498 215.578C163.78 215.948 163.988 216.385 164.123 216.891C164.259 217.391 164.327 217.938 164.327 218.531V219.18H158.014V218H162.881V217.891C162.86 217.516 162.782 217.151 162.647 216.797C162.517 216.443 162.308 216.151 162.022 215.922C161.735 215.693 161.345 215.578 160.85 215.578C160.522 215.578 160.22 215.648 159.944 215.789C159.668 215.924 159.431 216.128 159.233 216.398C159.035 216.669 158.881 217 158.772 217.391C158.663 217.781 158.608 218.232 158.608 218.742V219.07C158.608 219.471 158.663 219.849 158.772 220.203C158.886 220.552 159.051 220.859 159.264 221.125C159.483 221.391 159.746 221.599 160.053 221.75C160.366 221.901 160.72 221.977 161.116 221.977C161.626 221.977 162.058 221.872 162.413 221.664C162.767 221.456 163.077 221.177 163.342 220.828L164.217 221.523C164.035 221.799 163.803 222.062 163.522 222.312C163.241 222.562 162.894 222.766 162.483 222.922C162.077 223.078 161.595 223.156 161.038 223.156ZM171.086 220.758C171.086 220.549 171.039 220.357 170.945 220.18C170.857 219.997 170.672 219.833 170.391 219.688C170.115 219.536 169.698 219.406 169.141 219.297C168.672 219.198 168.247 219.081 167.867 218.945C167.492 218.81 167.172 218.646 166.906 218.453C166.646 218.26 166.445 218.034 166.305 217.773C166.164 217.513 166.094 217.208 166.094 216.859C166.094 216.526 166.167 216.211 166.312 215.914C166.464 215.617 166.674 215.354 166.945 215.125C167.221 214.896 167.552 214.716 167.938 214.586C168.323 214.456 168.753 214.391 169.227 214.391C169.904 214.391 170.482 214.51 170.961 214.75C171.44 214.99 171.807 215.31 172.062 215.711C172.318 216.107 172.445 216.547 172.445 217.031H171C171 216.797 170.93 216.57 170.789 216.352C170.654 216.128 170.453 215.943 170.188 215.797C169.927 215.651 169.607 215.578 169.227 215.578C168.826 215.578 168.5 215.641 168.25 215.766C168.005 215.885 167.826 216.039 167.711 216.227C167.602 216.414 167.547 216.612 167.547 216.82C167.547 216.977 167.573 217.117 167.625 217.242C167.682 217.362 167.781 217.474 167.922 217.578C168.062 217.677 168.26 217.771 168.516 217.859C168.771 217.948 169.096 218.036 169.492 218.125C170.185 218.281 170.755 218.469 171.203 218.688C171.651 218.906 171.984 219.174 172.203 219.492C172.422 219.81 172.531 220.195 172.531 220.648C172.531 221.018 172.453 221.357 172.297 221.664C172.146 221.971 171.924 222.237 171.633 222.461C171.346 222.68 171.003 222.852 170.602 222.977C170.206 223.096 169.76 223.156 169.266 223.156C168.521 223.156 167.891 223.023 167.375 222.758C166.859 222.492 166.469 222.148 166.203 221.727C165.938 221.305 165.805 220.859 165.805 220.391H167.258C167.279 220.786 167.393 221.102 167.602 221.336C167.81 221.565 168.065 221.729 168.367 221.828C168.669 221.922 168.969 221.969 169.266 221.969C169.661 221.969 169.992 221.917 170.258 221.812C170.529 221.708 170.734 221.565 170.875 221.383C171.016 221.201 171.086 220.992 171.086 220.758ZM177.962 221.969C178.306 221.969 178.624 221.898 178.916 221.758C179.207 221.617 179.447 221.424 179.634 221.18C179.822 220.93 179.929 220.646 179.955 220.328H181.33C181.304 220.828 181.134 221.294 180.822 221.727C180.515 222.154 180.111 222.5 179.611 222.766C179.111 223.026 178.561 223.156 177.962 223.156C177.327 223.156 176.772 223.044 176.298 222.82C175.83 222.596 175.439 222.289 175.127 221.898C174.819 221.508 174.587 221.06 174.431 220.555C174.28 220.044 174.205 219.505 174.205 218.938V218.609C174.205 218.042 174.28 217.505 174.431 217C174.587 216.49 174.819 216.039 175.127 215.648C175.439 215.258 175.83 214.951 176.298 214.727C176.772 214.503 177.327 214.391 177.962 214.391C178.624 214.391 179.202 214.526 179.697 214.797C180.192 215.062 180.58 215.427 180.861 215.891C181.147 216.349 181.304 216.87 181.33 217.453H179.955C179.929 217.104 179.83 216.789 179.658 216.508C179.491 216.227 179.262 216.003 178.97 215.836C178.684 215.664 178.348 215.578 177.962 215.578C177.52 215.578 177.147 215.667 176.845 215.844C176.548 216.016 176.311 216.25 176.134 216.547C175.962 216.839 175.837 217.164 175.759 217.523C175.686 217.878 175.65 218.24 175.65 218.609V218.938C175.65 219.307 175.686 219.672 175.759 220.031C175.832 220.391 175.955 220.716 176.127 221.008C176.304 221.299 176.541 221.534 176.837 221.711C177.14 221.883 177.515 221.969 177.962 221.969ZM184.55 215.875V223H183.105V214.547H184.511L184.55 215.875ZM187.191 214.5L187.183 215.844C187.063 215.818 186.948 215.802 186.839 215.797C186.735 215.786 186.615 215.781 186.48 215.781C186.146 215.781 185.852 215.833 185.597 215.938C185.342 216.042 185.126 216.188 184.948 216.375C184.771 216.562 184.631 216.786 184.527 217.047C184.428 217.302 184.363 217.583 184.331 217.891L183.925 218.125C183.925 217.615 183.974 217.135 184.073 216.688C184.178 216.24 184.336 215.844 184.55 215.5C184.764 215.151 185.034 214.88 185.363 214.688C185.696 214.49 186.092 214.391 186.55 214.391C186.654 214.391 186.774 214.404 186.909 214.43C187.045 214.451 187.139 214.474 187.191 214.5ZM190.247 214.547V223H188.794V214.547H190.247ZM188.684 212.305C188.684 212.07 188.755 211.872 188.895 211.711C189.041 211.549 189.255 211.469 189.536 211.469C189.812 211.469 190.023 211.549 190.169 211.711C190.32 211.872 190.395 212.07 190.395 212.305C190.395 212.529 190.32 212.721 190.169 212.883C190.023 213.039 189.812 213.117 189.536 213.117C189.255 213.117 189.041 213.039 188.895 212.883C188.755 212.721 188.684 212.529 188.684 212.305ZM194.163 216.172V226.25H192.709V214.547H194.038L194.163 216.172ZM199.858 218.703V218.867C199.858 219.482 199.785 220.052 199.639 220.578C199.493 221.099 199.28 221.552 198.998 221.938C198.722 222.323 198.381 222.622 197.975 222.836C197.569 223.049 197.103 223.156 196.577 223.156C196.04 223.156 195.566 223.068 195.155 222.891C194.743 222.714 194.394 222.456 194.108 222.117C193.821 221.779 193.592 221.372 193.42 220.898C193.254 220.424 193.139 219.891 193.077 219.297V218.422C193.139 217.797 193.256 217.237 193.428 216.742C193.6 216.247 193.827 215.826 194.108 215.477C194.394 215.122 194.741 214.854 195.147 214.672C195.553 214.484 196.022 214.391 196.553 214.391C197.084 214.391 197.556 214.495 197.967 214.703C198.379 214.906 198.725 215.198 199.006 215.578C199.288 215.958 199.498 216.414 199.639 216.945C199.785 217.471 199.858 218.057 199.858 218.703ZM198.405 218.867V218.703C198.405 218.281 198.36 217.885 198.272 217.516C198.183 217.141 198.045 216.812 197.858 216.531C197.676 216.245 197.441 216.021 197.155 215.859C196.868 215.693 196.527 215.609 196.131 215.609C195.767 215.609 195.449 215.672 195.178 215.797C194.913 215.922 194.686 216.091 194.498 216.305C194.311 216.513 194.157 216.753 194.038 217.023C193.923 217.289 193.837 217.565 193.78 217.852V219.875C193.884 220.24 194.03 220.583 194.217 220.906C194.405 221.224 194.655 221.482 194.967 221.68C195.28 221.872 195.673 221.969 196.147 221.969C196.538 221.969 196.873 221.888 197.155 221.727C197.441 221.56 197.676 221.333 197.858 221.047C198.045 220.76 198.183 220.432 198.272 220.062C198.36 219.688 198.405 219.289 198.405 218.867ZM205.234 221.969C205.578 221.969 205.896 221.898 206.188 221.758C206.479 221.617 206.719 221.424 206.906 221.18C207.094 220.93 207.201 220.646 207.227 220.328H208.602C208.576 220.828 208.406 221.294 208.094 221.727C207.786 222.154 207.383 222.5 206.883 222.766C206.383 223.026 205.833 223.156 205.234 223.156C204.599 223.156 204.044 223.044 203.57 222.82C203.102 222.596 202.711 222.289 202.398 221.898C202.091 221.508 201.859 221.06 201.703 220.555C201.552 220.044 201.477 219.505 201.477 218.938V218.609C201.477 218.042 201.552 217.505 201.703 217C201.859 216.49 202.091 216.039 202.398 215.648C202.711 215.258 203.102 214.951 203.57 214.727C204.044 214.503 204.599 214.391 205.234 214.391C205.896 214.391 206.474 214.526 206.969 214.797C207.464 215.062 207.852 215.427 208.133 215.891C208.419 216.349 208.576 216.87 208.602 217.453H207.227C207.201 217.104 207.102 216.789 206.93 216.508C206.763 216.227 206.534 216.003 206.242 215.836C205.956 215.664 205.62 215.578 205.234 215.578C204.792 215.578 204.419 215.667 204.117 215.844C203.82 216.016 203.583 216.25 203.406 216.547C203.234 216.839 203.109 217.164 203.031 217.523C202.958 217.878 202.922 218.24 202.922 218.609V218.938C202.922 219.307 202.958 219.672 203.031 220.031C203.104 220.391 203.227 220.716 203.398 221.008C203.576 221.299 203.812 221.534 204.109 221.711C204.411 221.883 204.786 221.969 205.234 221.969ZM211.947 214.547V223H210.494V214.547H211.947ZM210.384 212.305C210.384 212.07 210.455 211.872 210.595 211.711C210.741 211.549 210.955 211.469 211.236 211.469C211.512 211.469 211.723 211.549 211.869 211.711C212.02 211.872 212.095 212.07 212.095 212.305C212.095 212.529 212.02 212.721 211.869 212.883C211.723 213.039 211.512 213.117 211.236 213.117C210.955 213.117 210.741 213.039 210.595 212.883C210.455 212.721 210.384 212.529 210.384 212.305ZM214.034 218.867V218.688C214.034 218.078 214.123 217.513 214.3 216.992C214.477 216.466 214.732 216.01 215.066 215.625C215.399 215.234 215.803 214.932 216.277 214.719C216.751 214.5 217.282 214.391 217.87 214.391C218.464 214.391 218.998 214.5 219.472 214.719C219.951 214.932 220.357 215.234 220.691 215.625C221.029 216.01 221.287 216.466 221.464 216.992C221.641 217.513 221.73 218.078 221.73 218.688V218.867C221.73 219.477 221.641 220.042 221.464 220.562C221.287 221.083 221.029 221.539 220.691 221.93C220.357 222.315 219.954 222.617 219.48 222.836C219.011 223.049 218.48 223.156 217.886 223.156C217.292 223.156 216.758 223.049 216.284 222.836C215.81 222.617 215.404 222.315 215.066 221.93C214.732 221.539 214.477 221.083 214.3 220.562C214.123 220.042 214.034 219.477 214.034 218.867ZM215.48 218.688V218.867C215.48 219.289 215.529 219.688 215.628 220.062C215.727 220.432 215.876 220.76 216.073 221.047C216.277 221.333 216.529 221.56 216.831 221.727C217.133 221.888 217.485 221.969 217.886 221.969C218.282 221.969 218.628 221.888 218.925 221.727C219.227 221.56 219.477 221.333 219.675 221.047C219.873 220.76 220.021 220.432 220.12 220.062C220.224 219.688 220.277 219.289 220.277 218.867V218.688C220.277 218.271 220.224 217.878 220.12 217.508C220.021 217.133 219.87 216.802 219.667 216.516C219.469 216.224 219.219 215.995 218.917 215.828C218.62 215.661 218.271 215.578 217.87 215.578C217.474 215.578 217.126 215.661 216.823 215.828C216.527 215.995 216.277 216.224 216.073 216.516C215.876 216.802 215.727 217.133 215.628 217.508C215.529 217.878 215.48 218.271 215.48 218.688ZM217.011 213.297L218.527 211H220.269L218.175 213.297H217.011ZM225.137 216.352V223H223.692V214.547H225.059L225.137 216.352ZM224.794 218.453L224.192 218.43C224.197 217.852 224.283 217.318 224.45 216.828C224.617 216.333 224.851 215.904 225.153 215.539C225.455 215.174 225.815 214.893 226.231 214.695C226.653 214.492 227.119 214.391 227.63 214.391C228.046 214.391 228.421 214.448 228.755 214.562C229.088 214.672 229.372 214.849 229.606 215.094C229.846 215.339 230.028 215.656 230.153 216.047C230.278 216.432 230.341 216.904 230.341 217.461V223H228.887V217.445C228.887 217.003 228.822 216.648 228.692 216.383C228.562 216.112 228.372 215.917 228.122 215.797C227.872 215.672 227.565 215.609 227.2 215.609C226.841 215.609 226.512 215.685 226.216 215.836C225.924 215.987 225.671 216.195 225.458 216.461C225.249 216.727 225.085 217.031 224.966 217.375C224.851 217.714 224.794 218.073 224.794 218.453ZM236.828 222.234C236.828 221.99 236.904 221.784 237.055 221.617C237.211 221.445 237.435 221.359 237.727 221.359C238.018 221.359 238.24 221.445 238.391 221.617C238.547 221.784 238.625 221.99 238.625 222.234C238.625 222.474 238.547 222.677 238.391 222.844C238.24 223.01 238.018 223.094 237.727 223.094C237.435 223.094 237.211 223.01 237.055 222.844C236.904 222.677 236.828 222.474 236.828 222.234ZM241.197 222.234C241.197 221.99 241.272 221.784 241.423 221.617C241.58 221.445 241.804 221.359 242.095 221.359C242.387 221.359 242.608 221.445 242.759 221.617C242.916 221.784 242.994 221.99 242.994 222.234C242.994 222.474 242.916 222.677 242.759 222.844C242.608 223.01 242.387 223.094 242.095 223.094C241.804 223.094 241.58 223.01 241.423 222.844C241.272 222.677 241.197 222.474 241.197 222.234ZM245.566 222.234C245.566 221.99 245.641 221.784 245.792 221.617C245.948 221.445 246.172 221.359 246.464 221.359C246.756 221.359 246.977 221.445 247.128 221.617C247.284 221.784 247.363 221.99 247.363 222.234C247.363 222.474 247.284 222.677 247.128 222.844C246.977 223.01 246.756 223.094 246.464 223.094C246.172 223.094 245.948 223.01 245.792 222.844C245.641 222.677 245.566 222.474 245.566 222.234ZM249.934 222.234C249.934 221.99 250.01 221.784 250.161 221.617C250.317 221.445 250.541 221.359 250.833 221.359C251.124 221.359 251.346 221.445 251.497 221.617C251.653 221.784 251.731 221.99 251.731 222.234C251.731 222.474 251.653 222.677 251.497 222.844C251.346 223.01 251.124 223.094 250.833 223.094C250.541 223.094 250.317 223.01 250.161 222.844C250.01 222.677 249.934 222.474 249.934 222.234ZM254.303 222.234C254.303 221.99 254.379 221.784 254.53 221.617C254.686 221.445 254.91 221.359 255.202 221.359C255.493 221.359 255.715 221.445 255.866 221.617C256.022 221.784 256.1 221.99 256.1 222.234C256.1 222.474 256.022 222.677 255.866 222.844C255.715 223.01 255.493 223.094 255.202 223.094C254.91 223.094 254.686 223.01 254.53 222.844C254.379 222.677 254.303 222.474 254.303 222.234ZM258.672 222.234C258.672 221.99 258.747 221.784 258.898 221.617C259.055 221.445 259.279 221.359 259.57 221.359C259.862 221.359 260.083 221.445 260.234 221.617C260.391 221.784 260.469 221.99 260.469 222.234C260.469 222.474 260.391 222.677 260.234 222.844C260.083 223.01 259.862 223.094 259.57 223.094C259.279 223.094 259.055 223.01 258.898 222.844C258.747 222.677 258.672 222.474 258.672 222.234Z" fill="#808080" fill-opacity="0.87"/>
<rect y="592" width="73" height="78" fill="#D9D9D9"/>
<rect x="184" y="592" width="72" height="78" fill="#D9D9D9"/>
<rect x="92" y="592" width="76" height="78" fill="#D9D9D9"/>
<path d="M322.667 631C326.557 631 330.287 632.4 333.038 634.893C335.788 637.386 337.333 640.767 337.333 644.292C337.333 647.817 335.788 651.198 333.038 653.69C330.287 656.183 326.557 657.583 322.667 657.583C318.777 657.583 315.046 656.183 312.296 653.69C309.545 651.198 308 647.817 308 644.292C308 640.767 309.545 637.386 312.296 634.893C315.046 632.4 318.777 631 322.667 631ZM322.667 635.833L322.427 635.853C322.16 635.897 321.915 636.013 321.724 636.187C321.532 636.36 321.403 636.583 321.355 636.824L321.333 637.042V643.083H314.661L314.421 643.105C314.155 643.149 313.91 643.266 313.718 643.439C313.527 643.613 313.398 643.835 313.349 644.077L313.328 644.294L313.349 644.512C313.398 644.753 313.527 644.975 313.718 645.149C313.91 645.322 314.155 645.439 314.421 645.483L314.661 645.502H321.333V651.551L321.355 651.769C321.403 652.01 321.532 652.233 321.724 652.406C321.915 652.58 322.16 652.696 322.427 652.74L322.667 652.76L322.907 652.74C323.173 652.696 323.419 652.58 323.61 652.406C323.802 652.233 323.93 652.01 323.979 651.769L324 651.551V645.5H330.677L330.917 645.483C331.184 645.439 331.429 645.322 331.621 645.149C331.812 644.975 331.941 644.753 331.989 644.512L332.011 644.294L331.989 644.077C331.941 643.835 331.812 643.612 331.62 643.439C331.428 643.265 331.182 643.149 330.915 643.105L330.675 643.086H324V637.044L323.979 636.827C323.931 636.585 323.802 636.362 323.611 636.188C323.419 636.014 323.174 635.897 322.907 635.853L322.667 635.833ZM313.133 608.051C314.179 608.051 315.206 608.299 316.114 608.769C317.021 609.24 317.777 609.917 318.307 610.734L320.478 614.086H326C328.298 614.086 330.502 614.913 332.127 616.385C333.753 617.858 334.666 619.855 334.667 621.938V632.958C331.443 630.146 327.141 628.578 322.667 628.583C321.557 628.583 320.472 628.678 319.419 628.859C318.772 627.045 317.61 625.417 316.05 624.139C314.489 622.86 312.586 621.975 310.53 621.573C308.474 621.171 306.337 621.266 304.334 621.848C302.331 622.43 300.532 623.479 299.117 624.89C297.702 626.3 296.721 628.023 296.272 629.885C295.824 631.748 295.923 633.684 296.56 635.501C297.197 637.318 298.35 638.951 299.903 640.237C301.456 641.522 303.354 642.416 305.408 642.827C305.05 646.31 305.983 649.801 308.059 652.75H290C287.702 652.75 285.497 651.923 283.872 650.45C282.247 648.977 281.333 646.979 281.333 644.896V621.938C281.333 619.854 282.247 617.857 283.872 616.384C285.497 614.911 287.702 614.083 290 614.083H295.547L297.88 610.642C298.417 609.85 299.168 609.196 300.063 608.742C300.958 608.288 301.967 608.049 302.992 608.049H313.133V608.051ZM308 624.958C309.685 624.958 311.327 625.44 312.691 626.336C314.056 627.231 315.074 628.494 315.6 629.944C313.414 630.831 311.453 632.118 309.842 633.724C308.23 635.33 307.002 637.221 306.235 639.277C304.321 638.879 302.635 637.857 301.499 636.405C300.363 634.954 299.855 633.174 300.073 631.406C300.292 629.637 301.22 628.003 302.682 626.814C304.143 625.626 306.036 624.966 308 624.961V624.958Z" fill="black"/>
<path d="M15 714C15 711.791 16.7909 710 19 710H340C342.209 710 344 711.791 344 714V759C344 761.209 342.209 763 340 763H19C16.7909 763 15 761.209 15 759V714Z" fill="#6200EE"/>
<path d="M155.812 738.283H158.732C158.674 739.24 158.41 740.09 157.941 740.832C157.479 741.574 156.831 742.154 155.998 742.57C155.171 742.987 154.175 743.195 153.01 743.195C152.098 743.195 151.281 743.039 150.559 742.727C149.836 742.408 149.217 741.952 148.703 741.359C148.195 740.767 147.808 740.051 147.541 739.211C147.274 738.371 147.141 737.43 147.141 736.389V735.402C147.141 734.361 147.277 733.42 147.551 732.58C147.831 731.734 148.228 731.014 148.742 730.422C149.263 729.829 149.885 729.374 150.607 729.055C151.33 728.736 152.137 728.576 153.029 728.576C154.214 728.576 155.214 728.791 156.027 729.221C156.848 729.65 157.482 730.243 157.932 730.998C158.387 731.753 158.661 732.613 158.752 733.576H155.822C155.79 733.003 155.676 732.518 155.48 732.121C155.285 731.717 154.989 731.415 154.592 731.213C154.201 731.005 153.68 730.9 153.029 730.9C152.541 730.9 152.115 730.992 151.75 731.174C151.385 731.356 151.079 731.633 150.832 732.004C150.585 732.375 150.399 732.844 150.275 733.41C150.158 733.97 150.1 734.628 150.1 735.383V736.389C150.1 737.124 150.155 737.772 150.266 738.332C150.376 738.885 150.546 739.354 150.773 739.738C151.008 740.116 151.307 740.402 151.672 740.598C152.043 740.786 152.489 740.881 153.01 740.881C153.622 740.881 154.126 740.783 154.523 740.588C154.921 740.393 155.223 740.103 155.432 739.719C155.646 739.335 155.773 738.856 155.812 738.283ZM161.906 728.781H167.209C168.296 728.781 169.23 728.944 170.012 729.27C170.799 729.595 171.405 730.077 171.828 730.715C172.251 731.353 172.463 732.137 172.463 733.068C172.463 733.83 172.333 734.484 172.072 735.031C171.818 735.572 171.457 736.024 170.988 736.389C170.526 736.747 169.982 737.033 169.357 737.248L168.43 737.736H163.82L163.801 735.451H167.229C167.743 735.451 168.169 735.36 168.508 735.178C168.846 734.995 169.1 734.742 169.27 734.416C169.445 734.09 169.533 733.713 169.533 733.283C169.533 732.827 169.449 732.434 169.279 732.102C169.11 731.77 168.853 731.516 168.508 731.34C168.163 731.164 167.73 731.076 167.209 731.076H164.836V743H161.906V728.781ZM169.855 743L166.613 736.662L169.709 736.643L172.99 742.863V743H169.855ZM185.51 740.715V743H177.941V740.715H185.51ZM178.898 728.781V743H175.969V728.781H178.898ZM184.523 734.572V736.799H177.941V734.572H184.523ZM185.5 728.781V731.076H177.941V728.781H185.5ZM194.25 731.213L190.383 743H187.268L192.551 728.781H194.533L194.25 731.213ZM197.463 743L193.586 731.213L193.273 728.781H195.275L200.588 743H197.463ZM197.287 737.707V740.002H189.777V737.707H197.287ZM203.156 728.781H208.459C209.546 728.781 210.48 728.944 211.262 729.27C212.049 729.595 212.655 730.077 213.078 730.715C213.501 731.353 213.713 732.137 213.713 733.068C213.713 733.83 213.583 734.484 213.322 735.031C213.068 735.572 212.707 736.024 212.238 736.389C211.776 736.747 211.232 737.033 210.607 737.248L209.68 737.736H205.07L205.051 735.451H208.479C208.993 735.451 209.419 735.36 209.758 735.178C210.096 734.995 210.35 734.742 210.52 734.416C210.695 734.09 210.783 733.713 210.783 733.283C210.783 732.827 210.699 732.434 210.529 732.102C210.36 731.77 210.103 731.516 209.758 731.34C209.413 731.164 208.98 731.076 208.459 731.076H206.086V743H203.156V728.781ZM211.105 743L207.863 736.662L210.959 736.643L214.24 742.863V743H211.105Z" fill="white"/>
</g>
<defs>
<filter id="filter0_ddd_2_5" x="-10" y="15" width="381" height="76" filterUnits="userSpaceOnUse" color-interpolation-filters="sRGB">
<feFlood flood-opacity="0" result="BackgroundImageFix"/>
<feColorMatrix in="SourceAlpha" type="matrix" values="0 0 0 0 0 0 0 0 0 0 0 0 0 0 0 0 0 0 127 0" result="hardAlpha"/>
<feOffset dy="2"/>
<feGaussianBlur stdDeviation="2"/>
<feColorMatrix type="matrix" values="0 0 0 0 0 0 0 0 0 0 0 0 0 0 0 0 0 0 0.2 0"/>
<feBlend mode="normal" in2="BackgroundImageFix" result="effect1_dropShadow_2_5"/>
<feColorMatrix in="SourceAlpha" type="matrix" values="0 0 0 0 0 0 0 0 0 0 0 0 0 0 0 0 0 0 127 0" result="hardAlpha"/>
<feOffset dy="1"/>
<feGaussianBlur stdDeviation="5"/>
<feColorMatrix type="matrix" values="0 0 0 0 0 0 0 0 0 0 0 0 0 0 0 0 0 0 0.12 0"/>
<feBlend mode="normal" in2="effect1_dropShadow_2_5" result="effect2_dropShadow_2_5"/>
<feColorMatrix in="SourceAlpha" type="matrix" values="0 0 0 0 0 0 0 0 0 0 0 0 0 0 0 0 0 0 127 0" result="hardAlpha"/>
<feOffset dy="4"/>
<feGaussianBlur stdDeviation="2.5"/>
<feColorMatrix type="matrix" values="0 0 0 0 0 0 0 0 0 0 0 0 0 0 0 0 0 0 0.14 0"/>
<feBlend mode="normal" in2="effect2_dropShadow_2_5" result="effect3_dropShadow_2_5"/>
<feBlend mode="normal" in="SourceGraphic" in2="effect3_dropShadow_2_5" result="shape"/>
</filter>
<clipPath id="clip0_2_5">
<rect width="360" height="800" fill="white"/>
</clipPath>
</defs>
</svg>
